
<svg xmlns="http://www.w3.org/2000/svg" role="img" viewBox="-1.27 -2.27 506.04 508.04"><title>gtfs-router logo</title><defs id="defs184"><style id="style182" type="text/css"/></defs><defs id="defs191"><clipPath id="cpMC4wMHw1MDQuMDB8MC4wMHw1MDQuMDA="><path id="rect188" fill="none" stroke="#000" stroke-linecap="round" stroke-linejoin="round" stroke-miterlimit="10" d="M0 0h504v504H0z"/></clipPath></defs><g id="g223" clip-path="url(#cpMC4wMHw1MDQuMDB8MC4wMHw1MDQuMDA=)"><path id="path346" fill="#9b9b9b" stroke="none" stroke-width=".12" d="M39.17 178.39c-2.3318.20508-2.33179 3.39492 0 3.6 0 1.12572-.31094 2.80692.1887 3.83952.58217 1.20312 2.06795.96048 3.1713.96048h6.24c.61176 0 1.8252-.23088 2.3484.12336.375.25392.40848.91884.53508 1.31664.2514.79032.64704 1.57644 1.08444 2.28 1.62048 2.60688 4.6878 4.53912 7.79208 4.67532 3.47856.15252 6.81576-1.13544 8.97168-3.95532.675-.88296 1.24716-1.93872 1.58484-3 .14892-.46776.17532-1.2438.73656-1.40184.8418-.23724 1.9938-.0382 2.86692-.0382h29.04c.4026 0 1.03704-.1146 1.3884.12336.375.25392.40848.91884.53508 1.31664.27876.87624.72804 1.75716 1.2396 2.52 2.10168 3.1344 6.0432 4.92636 9.79692 4.38864 2.96628-.42504 5.71428-2.05836 7.31208-4.62864.4374-.70356.83304-1.48968 1.08444-2.28.1266-.3978.16008-1.06272.53508-1.31664.50256-.34032 1.64208-.12336 2.2284-.12336h5.52c1.08828 0 2.37852.1494 2.87892-1.08012.41628-1.02288.12108-2.625.12108-3.71988 2.33184-.20508 2.33184-3.39492 0-3.6v-16.8c0-5.99388.1692-11.45556-4.68-15.81954-3.85464-3.46891-8.47128-3.38046-13.32-3.38046H83.21c-5.18952 0-10.2738-.14135-15.36 1.06612-7.83624 1.8603-14.9124 6.45676-20.04962 12.61388-2.41816 2.89824-4.29371 6.14316-5.78409 9.6-1.69249 3.92568-2.75793 8.43924-2.84629 12.72m91.08-28.8c-2.08464 0-4.39008-.30727-6.12 1.11944-2.28156 1.88165-2.16 4.22584-2.16 6.92056 0 3.92412-.36948 7.70484 2.54052 10.79532 2.27256 2.41344 5.1438 2.76468 8.25948 2.76468v2.4c-.78876 0-1.7892-.16176-2.51988.18876-1.31868.63252-1.38348 2.43192-.11964 3.16044.74424.42912 1.81344.2508 2.63952.2508v1.2c-1.11612 0-2.84316-.32364-3.83952.2508-1.31148.756-1.17612 2.6562.23952 3.21144 1.02264.40104 2.51388.13776 3.6.13776v1.2h-5.28c-.4974 0-1.54068.19716-1.95264-.12336-.32976-.25644-.36408-.94236-.49008-1.31664-.28008-.83232-.71172-1.67124-1.20036-2.4-2.05812-3.06948-5.64288-4.80228-9.31692-4.5492-3.00084.20664-5.85912 1.98792-7.55532 4.4292-.57432.82668-1.06704 1.7952-1.35816 2.76-.11532.38232-.14268 1.02432-.59388 1.16184-.95172.29004-2.3382.0382-3.33264.0382H79.25c-2.3634 0-5.10192.38868-7.42692-.0178-.54804-.0958-.56676-.74184-.6996-1.18224-.3048-1.01004-.82776-2.02464-1.443-2.88-1.76292-2.45076-4.75272-4.28292-7.83048-4.31952-3.57708-.0426-6.93168 1.53912-8.95692 4.55952-.48864.72876-.92016 1.56768-1.20036 2.4-.126.37428-.16032 1.0602-.49008 1.31664-.46572.36228-1.7448.12336-2.31264.12336h-6.12v-1.2c.7888 0 1.78924.16176 2.5199-.18876 1.26443-.60648 1.3924-2.29872.23825-3.08688-.73207-.49988-1.798-.32432-2.63815-.32432 0-3.79152 1.01305-7.66068 2.42407-11.16 1.19955-2.9748 2.85659-5.75244 4.82681-8.28 5.0892-6.5287 12.61008-10.88915 20.70912-12.40667 4.17876-.78297 8.48772-.55333 12.72-.55333h37.08c3.52776 0 7.37808.44564 9.6 3.6m-60.84.051c-5.54628.75497-10.38768 4.61962-11.8044 10.14898-.39048 1.524-1.2846 5.53572.52488 6.41124 1.05852.51228 2.80536.18876 3.95952.18876h42c1.25808 0 2.7372.2112 3.96-.11088 1.3008-.34272 2.3508-1.2834 2.84916-2.52912.48288-1.2072.27084-2.68368.27084-3.96 0-3.20112 1.09824-8.43384-2.64-9.92916-1.2072-.48289-2.68368-.27084-3.96-.27084H78.65c-3.00624 0-6.26232-.3543-9.24.051m8.16 3.54898v9.6h-6v-9.6h6m9.6 0v9.6h-6v-9.6h6m9.6 0v9.6h-6v-9.6h6m3.6 9.6v-9.6h5.04c.52848 0 1.44816-.17304 1.88184.19241.47304.39857.27816 1.41775.27816 1.96759v5.28c0 .57936.21564 1.68528-.37776 2.03664-.5076.3006-1.45152.12336-2.02224.12336h-4.8m32.4 4.8c-1.04316 0-2.09676.063-3.12-.18036-4.31016-1.02516-4.08-5.32608-4.08-8.81964 0-1.29576-.44424-3.60624.41028-4.67472.9672-1.20944 3.37368-.72528 4.74972-.72528.45768 0 1.32156-.17249 1.61136.27815.30912.48049.285 1.21441.35952 1.76185.24948 1.83312.0691 3.79068.0691 5.64v6.72m-64.8-13.92v9.12h-7.2c.75192-4.04796 2.78952-8.0724 7.2-9.12m-7.2 24.75432c6.49848-.79812 9.69996 8.06232 4.56 11.8548-.9948.73392-2.14032 1.12668-3.36 1.27656-6.49848.79812-9.69996-8.06232-4.56-11.8548.9948-.73404 2.14032-1.12668 3.36-1.27656m54 0c6.49848-.79812 9.69996 8.06232 4.56 11.8548-.9948.73392-2.14032 1.12668-3.36 1.27656-6.49848.79812-9.69996-8.06232-4.56-11.8548.9948-.73404 2.14032-1.12668 3.36-1.27656m-54.36 1.22148c-6.92916 1.24704-4.96008 11.92668 1.92 10.6884 6.92916-1.24704 4.96008-11.92668-1.92-10.6884m54 0c-6.92916 1.24704-4.95996 11.92668 1.92 10.6884 6.92916-1.24704 4.96008-11.92668-1.92-10.6884m-53.28 3.58548c2.24016-.34584 2.7492 3.16704.48 3.51744-2.24016.34584-2.7492-3.16704-.48-3.51744m54 0c2.24016-.34584 2.7492 3.16716.48 3.51744-2.24016.34584-2.7492-3.16704-.48-3.51744z"/><path id="path348" fill="#9b9b9b" stroke="none" stroke-width=".136" d="M127.95378 317.18548h-6.81081c0-.95021.24288-2.28863-.27366-3.13082-.81307-1.3252-2.90671-1.26146-3.61436.13471-.42145.8313-.19846 2.08772-.19846 2.99611h-13.62163v-10.89692c1.60531 0 4.0914.4702 5.58473-.13744 1.18726-.48314 1.61716-2.09303.8647-3.12578-.56284-.77246-1.35153-.82286-2.22672-.82313h-5.44865c-.95651 0-1.87216-.0375-2.49916.82313-.69225.95021-.36138 2.69113-.36138 3.80806v9.53481c0 1.17483-.36493 3.08356.36138 4.08049.627.86059 1.54265.82313 2.49916.82313H128.09c.52934 0 1.38845-.15978 1.85336.14002.99383.64074 1.43286 3.27466 1.77762 4.35496 1.51214 4.73743 1.68145 9.65181 1.68145 14.57463-.95024 0-2.2887-.24286-3.13093.27365-1.32524.81305-1.2615 2.90662.13472 3.61424.83133.42144 2.08779.19846 2.99621.19846 0 1.96199.026 3.95408-1.51104 5.4234-1.37252 1.31185-3.10737 1.38718-4.89112 1.38718-3.45526 0-7.35091.51024-10.76108-.0202-1.1814-.18375-2.54357-1.91773-3.40541-2.70408-2.01927-1.84239-4.11046-3.60606-6.12973-5.44846-.91305-.83307-2.06721-2.25852-3.26919-2.63528-1.07937-.33835-2.55269-.089-3.67783-.089H51.40027c-1.5152 0-4.14566-.55138-4.97778 1.09024-1.17466 2.31737 1.40081 2.99611 3.07075 2.99611h48.49298c1.13917 0 2.57162-.23401 3.67783.0433 1.24134.31111 2.59942 2.08949 3.54163 2.93073 2.76927 2.47279 5.50477 5.4866 8.58162 7.56206 1.38123.93168 4.37186.36082 5.99351.36082 5.41718 0 12.66906 1.39617 16.19706-3.81392 1.70175-2.51297 1.51105-5.27983 1.51105-8.17269 0-4.13634.17953-8.29215-.39094-12.39525-.64499-4.63964-2.04079-9.15737-4.13784-13.34873-1.71101-3.41973-3.92698-6.51623-6.42627-9.3986-6.21419-7.16642-15.18566-11.89045-24.46117-13.56335-4.66949-.84218-9.44114-.60265-14.16648-.60265H44.9981c-1.27703 0-3.1656-.34809-4.35881.13746-1.18728.48316-1.61713 2.09298-.8647 3.12573 1.1782 1.61716 5.46498.82316 7.26675.82316h40.45622c5.71223 0 11.30649-.10576 16.89081 1.29064 5.90184 1.4758 11.3825 4.56032 15.9373 8.55554 3.05056 2.67588 5.4056 5.86473 7.6281 9.22343m-66.74594-13.53211c-1.172.36805-1.36176 1.43554-1.36216 2.49908v11.8504c0 .74862-.13581 1.64598.27365 2.31355.5687.92692 1.47822.95553 2.45067.95553h5.44865c.84849 0 1.90784.16754 2.72432-.089 1.172-.36804 1.36176-1.43553 1.36216-2.49907v-11.85041c0-.74861.13581-1.64598-.27365-2.31355-.5687-.92692-1.47822-.95552-2.45067-.95552h-5.44865c-.84849 0-1.90784-.16754-2.72432.0889m19.07027 0c-1.172.36805-1.36176 1.43554-1.36216 2.49908v11.8504c0 .74862-.13581 1.64598.27365 2.31355.5687.92692 1.47822.95553 2.45067.95553h5.44865c.84849 0 1.90784.16754 2.72432-.089 1.172-.36804 1.36176-1.43553 1.36216-2.49907v-11.85041c0-.74861.13581-1.64598-.27365-2.31355-.5687-.92692-1.47822-.95552-2.45067-.95552h-5.44865c-.84849 0-1.90784-.16754-2.72432.0889m-36.77838 4.08635c-1.69438.53204-1.82018 3.01422-.2719 3.79894.67297.34107 1.584.19846 2.31514.19846 1.78446 0 4.60798.53722 6.26581-.13744 1.6282-.66253 1.6282-3.14894 0-3.81147-.71976-.29285-1.68893-.13744-2.45175-.13744-1.75283 0-4.18314-.43683-5.8573.089m24.51892-.089v9.53481h-4.08649v-9.53481h4.08649m19.07027 0v9.53481h-4.08649v-9.53481h4.08649M40.7754 318.63636c-1.75095.54989-1.8151 3.17673-.1361 3.85996.85708.34871 2.0853.13744 2.99665.13744h5.58486c.80018 0 1.8336.16945 2.58797-.13744 1.679-.68323 1.61485-3.31007-.13608-3.85996-.96667-.30361-2.26267-.0889-3.26919-.0889-2.2622 0-5.47153-.5883-7.6281.0889m2.72432 10.89693c-1.8636.58516-1.78308 3.50254.13622 3.94373 1.2543.28822 2.80134.0537 4.08648.0537h72.87568c1.47209 0 4.2968.54879 5.4195-.574 1.23711-1.23707.38889-3.40706-1.33302-3.50649-5.54386-.3201-11.20037-.006-16.75459-.006H49.62946c-1.83122 0-4.38131-.46012-6.12973.089m66.74595 10.89692c-1.80501.56677-1.80514 3.34168 0 3.90845 1.0415.32705 2.45625.089 3.54162.089h7.62811c1.17731 0 3.01555.34407 4.08594-.19846 1.59972-.81073 1.39499-3.41973-.40811-3.83422-1.05118-.2415-2.32929-.0537-3.4054-.0537h-6.81081c-1.39976 0-3.29167-.33181-4.63135.089m-64.02163 6.81058c-2.66368.83633-.98559 5.18298-.02523 6.72163 2.10486 3.37219 6.45954 4.91982 10.24145 3.71231 2.93641-.93768 5.10892-3.34522 5.89053-6.30033.4299-1.62555.50673-4.21834-1.80405-4.21834-2.1548 0-1.87025 2.07437-2.36498 3.53728-.6646 1.96553-2.86912 3.55675-4.9907 3.18503-1.63173-.28577-3.04737-1.24007-3.74351-2.7764-.7065-1.55907-.44185-4.72831-3.2035-3.86118m6.94702-.0163c-2.56618.6199-1.4962 4.56567 1.08973 3.94114 2.56617-.61989 1.4962-4.56567-1.08973-3.94114m12.12324.0163c-2.6637.83633-.98566 5.18298-.0252 6.72163 2.10481 3.37219 6.45951 4.91982 10.24142 3.71231 2.93641-.93768 5.10892-3.34522 5.89053-6.30033.4299-1.62555.50673-4.21834-1.80405-4.21834-2.1548 0-1.87024 2.07437-2.36498 3.53728-.6646 1.96553-2.86912 3.55675-4.9907 3.18503-1.63173-.28577-3.04742-1.24007-3.74349-2.7764-.70655-1.55907-.44188-4.72831-3.20353-3.86118m6.94703-.0163c-2.56618.6199-1.4962 4.56567 1.08973 3.94114 2.56618-.61989 1.4962-4.56567-1.08973-3.94114m12.12324.0163c-2.6637.83633-.98566 5.18298-.0252 6.72163 2.10482 3.37219 6.45951 4.91982 10.24142 3.71231 2.93641-.93768 5.10892-3.34522 5.89053-6.30033.4299-1.62555.50673-4.21834-1.80405-4.21834-2.1548 0-1.87024 2.07437-2.36498 3.53728-.6646 1.96553-2.86912 3.55675-4.9907 3.18503-1.63173-.28577-3.04742-1.24007-3.74349-2.7764-.70655-1.55907-.44188-4.72831-3.20353-3.86118m6.94703-.0163c-2.56618.6199-1.4962 4.56567 1.08973 3.94114 2.56618-.61989 1.4962-4.56567-1.08973-3.94114z"/><path id="path362" fill="#9b9b9b" stroke="none" stroke-width=".158" d="M94.385 207.755h-49.14c-1.11044 0-3.1304-.38477-4.07786.27437-.90943.63283-.83405 2.16657.14729 2.68994.65824.35107 1.63274.18569 2.35557.18569v37.8c-1.11037 0-2.9319-.34697-3.93057.18569-1.0448.55724-1.0448 2.22138 0 2.77862.99868.53266 2.8202.18569 3.93057.18569 0 1.13479-.4185 3.31396.3833 4.21659.81535.91775 2.9166.50841 4.0267.50841h11.34c.003 4.61617 3.31648 8.54768 7.875 9.35314 2.4852.43911 5.22711-.20223 7.245-1.7166 1.08486-.81411 2.06183-2.84744 3.46516-2.90855 3.03235-.13182 6.09934-.003 9.13484-.003 1.39892 0 3.20765-.30665 4.5612.0501.77805.20506 1.29323 1.24503 1.83 1.79486 1.00232 1.02643 2.19397 1.81173 3.5313 2.33447 6.12124 2.39274 12.75325-2.49827 12.7575-8.90442h14.0175c1.30394 0 4.13501.52857 5.16159-.38336.95839-.85144.50841-3.17504.50841-4.34164 1.11037 0 2.93186.34697 3.93057-.18569 1.04485-.55724 1.04485-2.22138 0-2.77862-.99871-.53266-2.8202-.18569-3.93057-.18569v-37.8c.72277 0 1.69738.16538 2.35557-.18569 1.04485-.55724 1.04485-2.22138 0-2.77862-1.4846-.79191-4.622-.18569-6.29307-.18569 0-1.54051.45029-3.91436-.11686-5.35257-.43612-1.10583-2.08483-1.26889-2.75877-.30029-.84231 1.21068-.27437 4.21126-.27437 5.65286h-16.695c-2.0308 0-5.34949.64276-7.23823-.095-1.1644-.45486-2.03521-2.81324-2.65277-3.84253l-4.8195-8.0325c-.63047-1.05087-1.28662-2.80304-2.31588-3.50559-1.55783-1.06323-2.95832.77623-2.26233 2.24559 2.13885 4.51456 5.19151 9.06316 7.94871 13.23m31.9725 3.15v6.3c-1.45026 0-4.48466-.5722-5.65283.38335-1.10959.90752-.64717 3.21757-.64717 4.49915V234.53H116.12v-11.4975c0-1.35009.44226-3.66361-.18569-4.88014-.58811-1.13904-1.88874-.94736-2.96431-.94736h-7.7175c-1.05509 0-2.3603-.22617-3.03313.79443-.7223 1.09573-.27437 3.44437-.27437 4.71807V234.53h-2.3625v-11.8125c0-1.2737.44793-3.6225-.27436-4.71807-.62355-.94594-1.73203-.79443-2.71814-.79443h-6.7725c-1.00422 0-2.10861-.10001-2.6493.94736-.62796 1.21653-.1857 3.53005-.1857 4.88014V234.53H84.62v-11.4975c0-1.35009.44226-3.66361-.1857-4.88014-.54069-1.04737-1.64508-.94736-2.6493-.94736h-6.7725c-.9861 0-2.0946-.15151-2.71814.79443-.72229 1.09573-.27436 3.44437-.27436 4.71807V234.53h-3.15v-11.8125c0-1.2737.44793-3.62234-.27437-4.71807-.67284-1.02044-1.97804-.79443-3.03313-.79443H57.845c-1.07557 0-2.3762-.19168-2.9643.94736-.62796 1.21653-.1857 3.53005-.1857 4.88014V234.53h-2.0475v-12.285c0-1.25354.45182-3.57131-.50847-4.53159-1.05626-1.0562-3.92489-.50841-5.31903-.50841v-6.3h79.5375m-76.86 9.45v14.175H46.82v-14.175h2.6775m16.2225 0v33.075h-7.875v-33.075h7.875m15.75 0v14.175h-6.3v-14.175h6.3m14.9625 0v14.175h-6.3v-14.175h6.3m16.5375 0v33.075h-7.875v-33.075h7.875m13.3875 0v14.175h-3.15v-14.175h3.15M54.695 237.68v15.75H46.82v-15.75h7.875m47.25 0v15.75H68.87v-15.75h33.075m24.4125 0v15.75H116.12v-15.75h10.2375M75.17 256.58c-.3495 8.11723-12.2505 8.11723-12.6 0h12.6m15.75 0l.1575 1.575h-12.915l.1575-1.575h12.6m15.75 0c-.34949 8.11723-12.2505 8.11723-12.6 0z"/><path id="path360" fill="#9b9b9b" stroke="none" stroke-width=".24" d="M154.8 413.84c-4.66358.41016-4.66357 6.78984 0 7.2 0 2.25144-.62189 5.61384.3774 7.67904 1.16434 2.40624 4.1359 1.92096 6.3426 1.92096H174c1.22352 0 3.6504-.46176 4.6968.24672.75.50784.81696 1.83768 1.07016 2.63328.5028 1.58064 1.29408 3.15288 2.16888 4.56 3.24096 5.21376 9.3756 9.07824 15.58416 9.35064 6.95712.30504 13.63152-2.27088 17.94336-7.91064 1.35-1.76592 2.49432-3.87744 3.16968-6 .29784-.93552.35064-2.4876 1.47312-2.80368 1.6836-.47448 3.9876-.0763 5.73384-.0763h58.08c.8052 0 2.07408-.2292 2.7768.24672.75.50784.81696 1.83768 1.07016 2.63328.55752 1.75248 1.45608 3.51432 2.4792 5.04 4.20336 6.2688 12.0864 9.85272 19.59384 8.77728 5.93256-.85008 11.42856-4.11672 14.62416-9.25728.8748-1.40712 1.66608-2.97936 2.16888-4.56.2532-.7956.32016-2.12544 1.07016-2.63328 1.00512-.68064 3.28416-.24672 4.4568-.24672h11.04c2.17656 0 4.75704.2988 5.75784-2.16024.83256-2.04576.24216-5.25.24216-7.43976 4.66368-.41016 4.66368-6.78984 0-7.2v-33.6c0-11.98776.3384-22.91112-9.36-31.63908-7.70928-6.93785-16.94256-6.76094-26.64-6.76094h-70.32c-10.37904 0-20.5476-.28269-30.72 2.13223-15.67248 3.7206-29.8248 12.91354-40.09925 25.22777-4.83631 5.79648-8.58741 12.28632-11.56817 19.2-3.38498 7.85136-5.51587 16.87848-5.69258 25.44m182.16-57.6c-4.16928 0-8.78016-.61454-12.24 2.23889-4.56312 3.76329-4.32 8.45167-4.32 13.84111 0 7.84824-.73896 15.40968 5.08104 21.59064C330.02616 398.73752 335.76864 399.44 342 399.44v4.8c-1.57752 0-3.5784-.32352-5.03976.37752-2.63736 1.26504-2.76696 4.86384-.23928 6.32088 1.48848.85824 3.62688.5016 5.27904.5016v2.4c-2.23224 0-5.68632-.64728-7.67904.5016-2.62296 1.512-2.35224 5.3124.47904 6.42288 2.04528.80208 5.02776.27552 7.2.27552v2.4h-10.56c-.9948 0-3.08136.39432-3.90528-.24672-.65952-.51288-.72816-1.88472-.98016-2.63328-.56016-1.66464-1.42344-3.34248-2.40072-4.8-4.11624-6.13896-11.28576-9.60456-18.63384-9.0984-6.00168.41328-11.71824 3.97584-15.11064 8.8584-1.14864 1.65336-2.13408 3.5904-2.71632 5.52-.23064.76464-.28536 2.04864-1.18776 2.32368-1.90344.58008-4.6764.0763-6.66528.0763h-44.88c-4.7268 0-10.20384.77736-14.85384-.0355-1.09608-.19152-1.13352-1.48368-1.3992-2.36448-.6096-2.02008-1.65552-4.04928-2.886-5.76-3.52584-4.90152-9.50544-8.56584-15.66096-8.63904-7.15416-.0852-13.86336 3.07824-17.91384 9.11904-.97728 1.45752-1.84032 3.13536-2.40072 4.8-.252.74856-.32064 2.1204-.98016 2.63328-.93144.72456-3.4896.24672-4.62528.24672H162v-2.4c1.57762 0 3.57847.32352 5.03981-.37752 2.52885-1.21296 2.78479-4.59744.47649-6.17376-1.46414-.99984-3.59601-.64872-5.2763-.64872 0-7.58304 2.0261-15.32136 4.84814-22.32 2.39909-5.9496 5.71318-11.50488 9.65362-16.56 10.1784-13.05739 25.22016-21.7783 41.41824-24.81334 8.35752-1.56595 16.97544-1.10666 25.44-1.10666h74.16c7.05552 0 14.75616.89129 19.2 7.2m-121.68.10205c-11.09256 1.50993-20.77536 9.23923-23.6088 20.29795-.78096 3.048-2.5692 11.07144 1.04976 12.82248 2.11704 1.02456 5.61072.37752 7.91904.37752h84c2.51616 0 5.4744.4224 7.92-.22176 2.6016-.68544 4.7016-2.5668 5.69832-5.05824.96576-2.4144.54168-5.36736.54168-7.92 0-6.40224 2.19648-16.86768-5.28-19.85832-2.4144-.96578-5.36736-.54168-7.92-.54168h-51.84c-6.01248 0-12.52464-.7086-18.48.10205M231.6 363.44v19.2h-12v-19.2h12m19.2 0v19.2h-12v-19.2h12m19.2 0v19.2h-12v-19.2h12m7.2 19.2v-19.2h10.08c1.05696 0 2.89632-.34608 3.76368.38482.94608.79713.55632 2.8355.55632 3.93518v10.56c0 1.15872.43128 3.37056-.75552 4.07328-1.0152.6012-2.90304.24672-4.04448.24672h-9.6m64.8 9.6c-2.08632 0-4.19352.126-6.24-.36072-8.62032-2.05032-8.16-10.65216-8.16-17.63928 0-2.59152-.88848-7.21248.82056-9.34944 1.9344-2.41889 6.74736-1.45056 9.49944-1.45056.91536 0 2.64312-.34498 3.22272.5563.61824.96098.57 2.42882.71904 3.5237.49896 3.66624.13824 7.58136.13824 11.28v13.44M212.4 364.4v18.24H198c1.50384-8.09592 5.57904-16.1448 14.4-18.24M198 413.90864c12.99696-1.59624 19.39992 16.12464 9.12 23.7096-1.9896 1.46784-4.28064 2.25336-6.72 2.55312-12.99696 1.59624-19.39992-16.12464-9.12-23.7096 1.9896-1.46808 4.28064-2.25336 6.72-2.55312m108 0c12.99696-1.59624 19.39992 16.12464 9.12 23.7096-1.9896 1.46784-4.28064 2.25336-6.72 2.55312-12.99696 1.59624-19.39992-16.12464-9.12-23.7096 1.9896-1.46808 4.28064-2.25336 6.72-2.55312m-108.72 2.44296c-13.85832 2.49408-9.92016 23.85336 3.84 21.3768 13.85832-2.49408 9.92016-23.85336-3.84-21.3768m108 0c-13.85832 2.49408-9.91992 23.85336 3.84 21.3768 13.85832-2.49408 9.92016-23.85336-3.84-21.3768m-106.56 7.17096c4.48032-.69168 5.4984 6.33408.96 7.03488-4.48032.69168-5.4984-6.33408-.96-7.03488m108 0c4.48032-.69168 5.4984 6.33432.96 7.03488-4.48032.69168-5.4984-6.33408-.96-7.03488z"/><path id="path358" fill="#9b9b9b" stroke="none" stroke-width=".272" d="M332.36757 239.74096h-13.62162c0-1.90042.48574-4.57725-.54732-6.26164-1.62615-2.65041-5.81344-2.52291-7.22872.26942-.84291 1.6626-.39694 4.17543-.39694 5.99222h-27.24324v-21.79384c3.21062 0 8.18278.9404 11.16946-.27488 2.37452-.96628 3.23431-4.18605 1.7294-6.25156-1.12569-1.54492-2.70308-1.64571-4.45345-1.64626h-10.8973c-1.91302 0-3.74431-.0749-4.99832 1.64626-1.3845 1.90042-.72276 5.38226-.72276 7.61613v19.06961c0 2.34965-.72985 6.16712.72276 8.16098 1.25401 1.72117 3.0853 1.64625 4.99832 1.64625H332.64c1.05867 0 2.7769-.31955 3.70672.28005 1.98766 1.28148 2.86571 6.54933 3.55524 8.70992 3.02427 9.47487 3.3629 19.30362 3.3629 29.14926-1.90048 0-4.5774-.48573-6.26185.5473-2.6505 1.6261-2.523 5.81324.26943 7.22848 1.66266.84287 4.17557.39692 5.99242.39692 0 3.92398.052 7.90817-3.02209 10.84679-2.74503 2.62371-6.21473 2.77436-9.78223 2.77436-6.91052 0-14.70182 1.0205-21.52216-.0403-2.36281-.3675-5.08713-3.83544-6.81081-5.40814-4.03854-3.6848-8.22092-7.21213-12.25946-10.89692-1.82612-1.66614-4.13444-4.51705-6.53838-5.27057-2.15875-.6767-5.10538-.1779-7.35568-.1779H179.26054c-3.0304 0-8.29132-1.10276-9.95555 2.18048-2.34932 4.63473 2.80161 5.99222 6.1415 5.99222h96.98594c2.27835 0 5.14325-.46803 7.35568.0866 2.48267.62221 5.19883 4.17897 7.08324 5.86145 5.53855 4.94557 11.00954 10.9732 17.16324 15.12411 2.76247 1.86338 8.74372.72165 11.98703.72165 10.83437 0 25.33812 2.79234 32.39412-7.62784 3.4035-5.02594 3.0221-10.55967 3.0221-16.34539 0-8.27267.35906-16.5843-.78188-24.7905-1.28997-9.27927-4.08159-18.31473-8.27568-26.69746-3.42203-6.83945-7.85396-13.03245-12.85255-18.79719-12.42837-14.33283-30.37131-23.7809-48.92232-27.12669-9.33899-1.68437-18.8823-1.20531-28.33298-1.20531h-85.81621c-2.55406 0-6.3312-.69618-8.71762.27493-2.37455.96631-3.23427 4.18594-1.7294 6.25145 2.3564 3.23432 10.92996 1.64631 14.5335 1.64631h80.91244c11.42445 0 22.61298-.21151 33.78162 2.58129 11.80368 2.9516 22.765 9.12064 31.87459 17.11109 6.10113 5.35175 10.81121 11.72944 15.25622 18.44685m-133.49189-27.0644c-2.34401.73608-2.72351 2.87106-2.72433 4.99814v23.70081c0 1.49724-.27161 3.29196.54732 4.62711 1.1374 1.85383 2.95643 1.91104 4.90133 1.91104h10.8973c1.69698 0 3.81569.33508 5.44865-.17789 2.344-.73609 2.7235-2.87107 2.72432-4.99814v-23.70081c0-1.49724.27162-3.29196-.54732-4.62711-1.1374-1.85384-2.95643-1.91105-4.90133-1.91105h-10.8973c-1.69698 0-3.81568-.33508-5.44864.1779m38.14054 0c-2.34401.73608-2.72351 2.87106-2.72433 4.99814v23.70081c0 1.49724-.27161 3.29196.54732 4.62711 1.1374 1.85383 2.95644 1.91104 4.90133 1.91104h10.8973c1.69698 0 3.81569.33508 5.44865-.17789 2.34401-.73609 2.7235-2.87107 2.72432-4.99814v-23.70081c0-1.49724.27162-3.29196-.54732-4.62711-1.1374-1.85384-2.95643-1.91105-4.90133-1.91105h-10.8973c-1.69698 0-3.81568-.33508-5.44864.1779m-73.55676 8.17269c-3.38876 1.06408-3.64035 6.02845-.5438 7.59788 1.34595.68215 3.168.39692 4.63029.39692 3.56892 0 9.21595 1.07444 12.53162-.27488 3.25638-1.32506 3.25638-6.29787 0-7.62294-1.43954-.58571-3.37787-.27487-4.90352-.27487-3.50566 0-8.36626-.87366-11.71459.17789m49.03784-.17789v19.06961h-8.17298v-19.06961h8.17298m38.14054 0v19.06961h-8.17298v-19.06961h8.17298m-92.62703 21.97173c-3.5019 1.09978-3.63022 6.35346-.27221 7.71993 1.71417.6974 4.17061.27487 5.99329.27487h11.16973c1.60035 0 3.66721.3389 5.17595-.27487 3.358-1.36647 3.22968-6.62015-.27216-7.71993-1.93335-.60723-4.52535-.17789-6.53838-.17789-4.52442 0-10.94307-1.17659-15.25622.17789m5.44865 21.79385c-3.7272 1.17033-3.56617 7.00509.27243 7.88747 2.50861.57644 5.60268.10733 8.17297.10733h145.75136c2.94417 0 8.5936 1.09759 10.83899-1.14799 2.47423-2.47415.7778-6.81412-2.66602-7.01299-11.08773-.64019-22.40076-.0117-33.50919-.0117H175.71892c-3.66245 0-8.76263-.92025-12.25946.17789m133.49189 21.79385c-3.61 1.13355-3.61027 6.68335 0 7.8169 2.08302.65409 4.9125.1779 7.08324.1779h15.25622c2.35463 0 6.03111.68814 8.17188-.39692 3.19945-1.62147 2.78998-6.83946-.8162-7.66844-2.10236-.48301-4.6586-.10734-6.81081-.10734h-13.62163c-2.79951 0-6.58333-.66362-9.2627.1779m-128.04324 13.62115c-5.32736 1.67268-1.97119 10.36597-.0505 13.44326 4.20971 6.74438 12.91908 9.83965 20.48289 7.42462 5.87283-1.87536 10.21785-6.69044 11.78107-12.60066.8598-3.25109 1.01345-8.43667-3.6081-8.43667-4.30961 0-3.74049 4.14873-4.72997 7.07456-1.3292 3.93106-5.73824 7.11351-9.98138 6.37007-3.26347-.57155-6.09475-2.48014-7.48704-5.5528-1.413-3.11816-.88369-9.45662-6.40701-7.72238m13.89405-.0327c-5.13235 1.2398-2.9924 9.13135 2.17946 7.88229 5.13236-1.2398 2.9924-9.13135-2.17946-7.88229m24.24649.0327c-5.32742 1.67268-1.97132 10.36597-.0504 13.44326 4.20962 6.74438 12.91902 9.83965 20.48283 7.42462 5.87283-1.87536 10.21785-6.69044 11.78107-12.60066.8598-3.25109 1.01345-8.43667-3.6081-8.43667-4.3096 0-3.74049 4.14873-4.72997 7.07456-1.3292 3.93106-5.73824 7.11351-9.98138 6.37007-3.26347-.57155-6.09486-2.48014-7.48699-5.5528-1.4131-3.11816-.88377-9.45662-6.40706-7.72238m13.89405-.0327c-5.13235 1.2398-2.9924 9.13135 2.17946 7.88229 5.13236-1.2398 2.9924-9.13135-2.17946-7.88229m24.24649.0327c-5.32742 1.67268-1.97132 10.36597-.0504 13.44326 4.20963 6.74438 12.91902 9.83965 20.48283 7.42462 5.87283-1.87536 10.21785-6.69044 11.78107-12.60066.8598-3.25109 1.01345-8.43667-3.6081-8.43667-4.3096 0-3.74049 4.14873-4.72997 7.07456-1.3292 3.93106-5.73824 7.11351-9.98138 6.37007-3.26346-.57155-6.09486-2.48014-7.48698-5.5528-1.41311-3.11816-.88378-9.45662-6.40707-7.72238m13.89405-.0327c-5.13235 1.2398-2.99239 9.13135 2.17946 7.88229 5.13236-1.2398 2.9924-9.13135-2.17946-7.88229z"/><path id="path356" fill="#9b9b9b" stroke="none" stroke-width=".315" d="M265.23 61.28h-98.28c-2.22088 0-6.26078-.76955-8.15573.54873-1.81884 1.26567-1.66808 4.33314.29459 5.37988 1.31648.70214 3.26548.37139 4.71114.37139v75.6c-2.22075 0-5.86379-.69394-7.86114.37138-2.08962 1.11447-2.08962 4.44276 0 5.55724 1.99735 1.06532 5.64039.37138 7.86114.37138 0 2.26957-.83699 6.62791.76658 8.43318 1.63073 1.8355 5.83324 1.01682 8.05342 1.01682h22.68c.006 9.23234 6.63295 17.09536 15.75 18.70627 4.97038.87822 10.45422-.40446 14.49-3.43318 2.16972-1.62824 4.12366-5.69489 6.93031-5.81711 6.0647-.26365 12.19869-.006 18.26969-.006 2.79783 0 6.41529-.61331 9.1224.10017 1.5561.41013 2.58646 2.49007 3.65998 3.58974 2.00466 2.05285 4.38795 3.62344 7.06262 4.66893 12.24247 4.78548 25.50649-4.99653 25.515-17.80884h28.035c2.60788 0 8.27001 1.05714 10.32318-.76671 1.91677-1.70289 1.01682-6.35009 1.01682-8.68329 2.22075 0 5.86372.69394 7.86114-.37138 2.08971-1.11448 2.08971-4.44277 0-5.55724-1.99742-1.06532-5.64039-.37138-7.86114-.37138v-75.6c1.44553 0 3.39475.33075 4.71114-.37139 2.08971-1.11447 2.08971-4.44276 0-5.55723-2.96919-1.5838-9.24399-.37136-12.58614-.37136 0-3.08101.90058-7.82873-.23373-10.70515-.87224-2.21165-4.16966-2.53776-5.51754-.60058C320.16411 52.39565 321.3 58.39681 321.3 61.28h-33.39c-4.06161 0-10.69898 1.28551-14.47646-.18995-2.32879-.90971-4.07043-5.62646-5.30554-7.68505l-9.639-16.065c-1.26095-2.10174-2.57324-5.60609-4.63176-7.01118-3.11567-2.12646-5.91665 1.55245-4.52466 4.49118 4.2777 9.02913 10.38303 18.12633 15.89742 26.46m63.945 6.3v12.6c-2.90052 0-8.96931-1.1444-11.30567.76671-2.21917 1.81503-1.29433 6.43514-1.29433 8.99829v24.885H308.7V91.835c0-2.70018.88452-7.32721-.37138-9.76028C307.1524 79.79664 304.55113 80.18 302.4 80.18h-15.435c-2.11019 0-4.72059-.45234-6.06627 1.58886-1.44459 2.19145-.54873 6.88873-.54873 9.43614v23.625h-4.725V91.205c0-2.5474.89586-7.245-.54873-9.43614-1.24709-1.89189-3.46406-1.58886-5.43627-1.58886h-13.545c-2.00844 0-4.21722-.20003-5.29862 1.89472-1.2559 2.43307-.37138 7.0601-.37138 9.76028v22.995H245.7V91.835c0-2.70018.88452-7.32721-.37138-9.76028-1.0814-2.09475-3.29018-1.89472-5.29862-1.89472h-13.545c-1.97222 0-4.18919-.30303-5.43627 1.58886-1.44459 2.19145-.54873 6.88873-.54873 9.43614v23.625h-6.3V91.205c0-2.5474.89586-7.24468-.54873-9.43614-1.34568-2.04089-3.95609-1.58886-6.06627-1.58886H192.15c-2.15114 0-4.75241-.38336-5.92862 1.89472-1.2559 2.43307-.37138 7.0601-.37138 9.76028v22.995h-4.095V90.26c0-2.50709.90364-7.14262-1.01695-9.06318C178.62554 79.08443 172.88829 80.18 170.1 80.18v-12.6h159.075m-153.72 18.9v28.35H170.1V86.48h5.355m32.445 0v66.15h-15.75V86.48h15.75m31.5 0v28.35h-12.6V86.48h12.6m29.925 0v28.35h-12.6V86.48h12.6m33.075 0v66.15h-15.75V86.48h15.75m26.775 0v28.35h-6.3V86.48h6.3M185.85 121.13v31.5H170.1v-31.5h15.75m94.5 0v31.5H214.2v-31.5h66.15m48.825 0v31.5H308.7v-31.5h20.475M226.8 158.93c-.69899 16.23447-24.50102 16.23447-25.2 0h25.2m31.5 0l.315 3.15h-25.83l.315-3.15h25.2m31.5 0c-.69899 16.23447-24.50101 16.23447-25.2 0z"/><path id="path354" fill="#9b9b9b" stroke="none" stroke-width=".12" d="M367.63 285.37c-2.33179.20508-2.33179 3.39492 0 3.6 0 1.12572-.31094 2.80692.1887 3.83952.58217 1.20312 2.06795.96048 3.1713.96048h6.24c.61176 0 1.8252-.23088 2.3484.12336.375.25392.40848.91884.53508 1.31664.2514.79032.64704 1.57644 1.08444 2.28 1.62048 2.60688 4.6878 4.53912 7.79208 4.67532 3.47856.15252 6.81576-1.13544 8.97168-3.95532.675-.88296 1.24716-1.93872 1.58484-3 .14892-.46776.17532-1.2438.73656-1.40184.8418-.23724 1.9938-.0382 2.86692-.0382h29.04c.4026 0 1.03704-.1146 1.3884.12336.375.25392.40848.91884.53508 1.31664.27876.87624.72804 1.75716 1.2396 2.52 2.10168 3.1344 6.0432 4.92636 9.79692 4.38864 2.96628-.42504 5.71428-2.05836 7.31208-4.62864.4374-.70356.83304-1.48968 1.08444-2.28.1266-.3978.16008-1.06272.53508-1.31664.50256-.34032 1.64208-.12336 2.2284-.12336h5.52c1.08828 0 2.37852.1494 2.87892-1.08012.41628-1.02288.12108-2.625.12108-3.71988 2.33184-.20508 2.33184-3.39492 0-3.6v-16.8c0-5.99388.1692-11.45556-4.68-15.81954-3.85464-3.46891-8.47128-3.38046-13.32-3.38046h-35.16c-5.18952 0-10.2738-.14135-15.36 1.06612-7.83624 1.8603-14.9124 6.45676-20.04962 12.61388-2.41816 2.89824-4.29371 6.14316-5.78409 9.6-1.69249 3.92568-2.75793 8.43924-2.84629 12.72m91.08-28.8c-2.08464 0-4.39008-.30727-6.12 1.11944-2.28156 1.88165-2.16 4.22584-2.16 6.92056 0 3.92412-.36948 7.70484 2.54052 10.79532 2.27256 2.41344 5.1438 2.76468 8.25948 2.76468v2.4c-.78876 0-1.7892-.16176-2.51988.18876-1.31868.63252-1.38348 2.43192-.11964 3.16044.74424.42912 1.81344.2508 2.63952.2508v1.2c-1.11612 0-2.84316-.32364-3.83952.2508-1.31148.756-1.17612 2.6562.23952 3.21144 1.02264.40104 2.51388.13776 3.6.13776v1.2h-5.28c-.4974 0-1.54068.19716-1.95264-.12336-.32976-.25644-.36408-.94236-.49008-1.31664-.28008-.83232-.71172-1.67124-1.20036-2.4-2.05812-3.06948-5.64288-4.80228-9.31692-4.5492-3.00084.20664-5.85912 1.98792-7.55532 4.4292-.57432.82668-1.06704 1.7952-1.35816 2.76-.11532.38232-.14268 1.02432-.59388 1.16184-.95172.29004-2.3382.0382-3.33264.0382h-22.44c-2.3634 0-5.10192.38868-7.42692-.0178-.54804-.0958-.56676-.74184-.6996-1.18224-.3048-1.01004-.82776-2.02464-1.443-2.88-1.76292-2.45076-4.75272-4.28292-7.83048-4.31952-3.57708-.0426-6.93168 1.53912-8.95692 4.55952-.48864.72876-.92016 1.56768-1.20036 2.4-.126.37428-.16032 1.0602-.49008 1.31664-.46572.36228-1.7448.12336-2.31264.12336h-6.12v-1.2c.78881 0 1.78924.16176 2.5199-.18876 1.26443-.60648 1.3924-2.29872.23825-3.08688-.73207-.49992-1.79801-.32436-2.63815-.32436 0-3.79152 1.01305-7.66068 2.42407-11.16 1.19955-2.9748 2.85659-5.75244 4.82681-8.28 5.0892-6.5287 12.61008-10.88915 20.70912-12.40667 4.17876-.78297 8.48772-.55333 12.72-.55333h37.08c3.52776 0 7.37808.44564 9.6 3.6m-60.84.051c-5.54628.75497-10.38768 4.61962-11.8044 10.14898-.39048 1.524-1.2846 5.53572.52488 6.41124 1.05852.51228 2.80536.18876 3.95952.18876h42c1.25808 0 2.7372.2112 3.96-.11088 1.3008-.34272 2.3508-1.2834 2.84916-2.52912.48288-1.2072.27084-2.68368.27084-3.96 0-3.20112 1.09824-8.43384-2.64-9.92916-1.2072-.48289-2.68368-.27084-3.96-.27084h-25.92c-3.00624 0-6.26232-.3543-9.24.051m8.16 3.54898v9.6h-6v-9.6h6m9.6 0v9.6h-6v-9.6h6m9.6 0v9.6h-6v-9.6h6m3.6 9.6v-9.6h5.04c.52848 0 1.44816-.17304 1.88184.19241.47304.39857.27816 1.41775.27816 1.96759v5.28c0 .57936.21564 1.68528-.37776 2.03664-.5076.3006-1.45152.12336-2.02224.12336h-4.8m32.4 4.8c-1.04316 0-2.09676.063-3.12-.18036-4.31016-1.02516-4.08-5.32608-4.08-8.81964 0-1.29576-.44424-3.60624.41028-4.67472.9672-1.20944 3.37368-.72528 4.74972-.72528.45768 0 1.32156-.17249 1.61136.27815.30912.48049.285 1.21441.35952 1.76185.24948 1.83312.0691 3.79068.0691 5.64v6.72m-64.8-13.92v9.12h-7.2c.75192-4.04796 2.78952-8.0724 7.2-9.12m-7.2 24.75432c6.49848-.79812 9.69996 8.06232 4.56 11.8548-.9948.73392-2.14032 1.12668-3.36 1.27656-6.49848.79812-9.69996-8.06232-4.56-11.8548.9948-.73404 2.14032-1.12668 3.36-1.27656m54 0c6.49848-.79812 9.69996 8.06232 4.56 11.8548-.9948.73392-2.14032 1.12668-3.36 1.27656-6.49848.79812-9.69996-8.06232-4.56-11.8548.9948-.73404 2.14032-1.12668 3.36-1.27656m-54.36 1.22148c-6.92916 1.24704-4.96008 11.92668 1.92 10.6884 6.92916-1.24704 4.96008-11.92668-1.92-10.6884m54 0c-6.92916 1.24704-4.95996 11.92668 1.92 10.6884 6.92916-1.24704 4.96008-11.92668-1.92-10.6884m-53.28 3.58548c2.24016-.34584 2.7492 3.16704.48 3.51744-2.24016.34584-2.7492-3.16704-.48-3.51744m54 0c2.24016-.34584 2.7492 3.16716.48 3.51744-2.24016.34584-2.7492-3.16704-.48-3.51744z"/><path id="path352" fill="#9b9b9b" stroke="none" stroke-width=".136" d="M456.41378 174.54548h-6.81081c0-.95021.24288-2.28863-.27366-3.13082-.81307-1.3252-2.90671-1.26146-3.61436.13471-.42145.8313-.19846 2.08772-.19846 2.99611h-13.62163v-10.89692c1.60531 0 4.0914.4702 5.58473-.13744 1.18726-.48314 1.61716-2.09303.8647-3.12578-.56284-.77246-1.35153-.82286-2.22672-.82313h-5.44865c-.95651 0-1.87216-.0375-2.49916.82313-.69225.95021-.36138 2.69113-.36138 3.80806v9.53481c0 1.17483-.36492 3.08356.36138 4.08049.627.86059 1.54265.82313 2.49916.82313H456.55c.52934 0 1.38845-.15978 1.85336.14002.99383.64074 1.43286 3.27466 1.77762 4.35496 1.51214 4.73743 1.68145 9.65181 1.68145 14.57463-.95024 0-2.2887-.24286-3.13093.27365-1.32524.81305-1.2615 2.90662.13472 3.61424.83133.42144 2.08779.19846 2.99621.19846 0 1.96199.026 3.95408-1.51104 5.4234-1.37252 1.31185-3.10737 1.38718-4.89112 1.38718-3.45526 0-7.35091.51024-10.76108-.0202-1.1814-.18375-2.54357-1.91773-3.40541-2.70408-2.01927-1.84239-4.11046-3.60606-6.12973-5.44846-.91305-.83307-2.06721-2.25852-3.26919-2.63528-1.07937-.33835-2.55269-.089-3.67783-.089H379.86027c-1.5152 0-4.14566-.55138-4.97778 1.09024-1.17466 2.31737 1.40081 2.99611 3.07075 2.99611h48.49298c1.13917 0 2.57162-.23401 3.67783.0433 1.24134.31111 2.59942 2.08949 3.54163 2.93073 2.76927 2.47279 5.50477 5.4866 8.58162 7.56206 1.38123.93168 4.37186.36082 5.99351.36082 5.41718 0 12.66906 1.39617 16.19706-3.81392 1.70175-2.51297 1.51105-5.27983 1.51105-8.17269 0-4.13634.17953-8.29215-.39094-12.39525-.64499-4.63964-2.04079-9.15737-4.13784-13.34873-1.71101-3.41973-3.92698-6.51623-6.42627-9.3986-6.21419-7.16642-15.18566-11.89045-24.46117-13.56335-4.66949-.84218-9.44114-.60265-14.16648-.60265h-42.90811c-1.27703 0-3.1656-.34809-4.35881.13746-1.18728.48316-1.61713 2.09298-.8647 3.12573 1.1782 1.61716 5.46498.82316 7.26675.82316h40.45622c5.71222 0 11.30649-.10576 16.89081 1.29064 5.90184 1.4758 11.3825 4.56032 15.9373 8.55554 3.05056 2.67588 5.4056 5.86473 7.6281 9.22343m-66.74594-13.53221c-1.17201.36805-1.36176 1.43554-1.36216 2.49908v11.8504c0 .74862-.13581 1.64598.27365 2.31355.56871.92692 1.47822.95553 2.45067.95553h5.44865c.84849 0 1.90784.16754 2.72432-.089 1.17201-.36804 1.36176-1.43553 1.36217-2.49907v-11.85041c0-.74861.1358-1.64598-.27366-2.31355-.56871-.92692-1.47822-.95552-2.45067-.95552h-5.44865c-.84849 0-1.90784-.16754-2.72432.0889m19.07027 0c-1.17201.36805-1.36176 1.43554-1.36216 2.49908v11.8504c0 .74862-.13581 1.64598.27365 2.31355.56871.92692 1.47822.95553 2.45067.95553h5.44865c.84849 0 1.90784.16754 2.72432-.089 1.17201-.36804 1.36176-1.43553 1.36217-2.49907v-11.85041c0-.74861.1358-1.64598-.27366-2.31355-.56871-.92692-1.47822-.95552-2.45067-.95552h-5.44865c-.84849 0-1.90784-.16754-2.72432.0889m-36.77838 4.08635c-1.69438.53204-1.82018 3.01422-.2719 3.79894.67297.34107 1.584.19846 2.31514.19846 1.78446 0 4.60798.53722 6.26581-.13744 1.6282-.66253 1.6282-3.14894 0-3.81147-.71976-.29285-1.68893-.13744-2.45175-.13744-1.75283 0-4.18313-.43683-5.8573.0889m24.51892-.0889v9.53481h-4.08649v-9.53481h4.08649m19.07027 0v9.53481h-4.08649v-9.53481h4.08649m-46.31351 10.98587c-1.75096.54989-1.81511 3.17673-.13611 3.85996.85708.34871 2.0853.13744 2.99665.13744h5.58486c.80018 0 1.83361.16945 2.58797-.13744 1.679-.68323 1.61485-3.31007-.13608-3.85996-.96667-.30361-2.26267-.0889-3.26919-.0889-2.26221 0-5.47153-.5883-7.6281.0889m2.72432 10.89693c-1.8636.58516-1.78308 3.50254.13622 3.94373 1.2543.28822 2.80134.0537 4.08648.0537h72.87568c1.47209 0 4.2968.54879 5.4195-.574 1.23711-1.23707.38889-3.40706-1.33302-3.50649-5.54386-.3201-11.20037-.006-16.75459-.006h-58.30054c-1.83122 0-4.38131-.46012-6.12973.089m66.74595 10.89692c-1.80501.56677-1.80514 3.34168 0 3.90845 1.0415.32705 2.45625.089 3.54162.089h7.62811c1.17731 0 3.01555.34407 4.08594-.19846 1.59972-.81073 1.39499-3.41973-.40811-3.83422-1.05118-.2415-2.32929-.0537-3.4054-.0537h-6.81081c-1.39976 0-3.29167-.33181-4.63135.089m-64.02163 6.81058c-2.66368.83633-.98559 5.18298-.0252 6.72163 2.10485 3.37219 6.45953 4.91982 10.24144 3.71231 2.93641-.93768 5.10893-3.34522 5.89053-6.30033.4299-1.62555.50673-4.21834-1.80404-4.21834-2.15481 0-1.87025 2.07437-2.36499 3.53728-.6646 1.96553-2.86912 3.55675-4.99069 3.18503-1.63173-.28577-3.04737-1.24007-3.74352-2.7764-.7065-1.55907-.44184-4.72831-3.20351-3.86118m6.94703-.0163c-2.56618.6199-1.4962 4.56567 1.08973 3.94114 2.56618-.61989 1.4962-4.56567-1.08973-3.94114m12.12324.0163c-2.6637.83633-.98566 5.18298-.0252 6.72163 2.10482 3.37219 6.45951 4.91982 10.24142 3.71231 2.93641-.93768 5.10893-3.34522 5.89053-6.30033.4299-1.62555.50673-4.21834-1.80404-4.21834-2.15481 0-1.87025 2.07437-2.36499 3.53728-.6646 1.96553-2.86912 3.55675-4.99069 3.18503-1.63173-.28577-3.04743-1.24007-3.74349-2.7764-.70656-1.55907-.44189-4.72831-3.20354-3.86118m6.94703-.0163c-2.56618.6199-1.4962 4.56567 1.08973 3.94114 2.56618-.61989 1.4962-4.56567-1.08973-3.94114m12.12324.0163c-2.6637.83633-.98566 5.18298-.0252 6.72163 2.10482 3.37219 6.45951 4.91982 10.24142 3.71231 2.93641-.93768 5.10893-3.34522 5.89053-6.30033.4299-1.62555.50673-4.21834-1.80404-4.21834-2.15481 0-1.87025 2.07437-2.36499 3.53728-.6646 1.96553-2.86912 3.55675-4.99069 3.18503-1.63173-.28577-3.04743-1.24007-3.74349-2.7764-.70656-1.55907-.44189-4.72831-3.20354-3.86118m6.94703-.0163c-2.56618.6199-1.4962 4.56567 1.08973 3.94114 2.56618-.61989 1.4962-4.56567-1.08973-3.94114z"/><path id="path350" fill="#9b9b9b" stroke="none" stroke-width=".158" d="M422.845 326.615h-49.14c-1.11044 0-3.13039-.38477-4.07786.27436-.90942.63284-.83405 2.16658.14729 2.68995.65824.35107 1.63274.18569 2.35557.18569v37.8c-1.11038 0-2.93189-.34697-3.93057.18569-1.04481.55724-1.04481 2.22138 0 2.77862.99868.53266 2.82019.18569 3.93057.18569 0 1.13479-.41849 3.31396.38329 4.21659.81536.91775 2.91662.50841 4.02671.50841h11.34c.003 4.61617 3.31648 8.54768 7.875 9.35314 2.48519.43911 5.22711-.20223 7.245-1.7166 1.08486-.81411 2.06183-2.84744 3.46516-2.90855 3.03234-.13182 6.09934-.003 9.13484-.003 1.39891 0 3.20764-.30665 4.5612.0501.77805.20506 1.29323 1.24503 1.82999 1.79486 1.00233 1.02643 2.19398 1.81173 3.53131 2.33447 6.12124 2.39274 12.75325-2.49827 12.7575-8.90442h14.0175c1.30394 0 4.135.52857 5.16159-.38336.95839-.85144.50841-3.17504.50841-4.34164 1.11037 0 2.93186.34697 3.93057-.18569 1.04485-.55724 1.04485-2.22138 0-2.77862-.99871-.53266-2.8202-.18569-3.93057-.18569v-37.8c.72277 0 1.69738.16538 2.35557-.18569 1.04486-.55724 1.04486-2.22138 0-2.77862-1.4846-.79191-4.622-.18569-6.29307-.18569 0-1.54051.45029-3.91436-.11687-5.35257-.43611-1.10583-2.08482-1.26889-2.75877-.30029-.84231 1.21068-.27436 4.21126-.27436 5.65286h-16.695c-2.03081 0-5.34949.64276-7.23823-.095-1.1644-.45486-2.03521-2.81324-2.65277-3.84253l-4.8195-8.0325c-.63047-1.05087-1.28662-2.80304-2.31588-3.50559-1.55783-1.06323-2.95832.77623-2.26233 2.24559 2.13885 4.51456 5.19151 9.06316 7.94871 13.23m31.9725 3.15v6.3c-1.45026 0-4.48466-.5722-5.65283.38335-1.10959.90752-.64717 3.21757-.64717 4.49915V353.39H444.58v-11.4975c0-1.35009.44226-3.66361-.18569-4.88014-.58811-1.13904-1.88874-.94736-2.96431-.94736h-7.7175c-1.05509 0-2.3603-.22617-3.03314.79443-.72229 1.09573-.27436 3.44437-.27436 4.71807V353.39h-2.3625v-11.8125c0-1.2737.44793-3.6225-.27437-4.71807-.62354-.94594-1.73202-.79443-2.71813-.79443h-6.7725c-1.00422 0-2.10861-.10001-2.64931.94736-.62795 1.21653-.18569 3.53005-.18569 4.88014V353.39H413.08v-11.4975c0-1.35009.44226-3.66361-.18569-4.88014-.5407-1.04737-1.64509-.94736-2.64931-.94736h-6.7725c-.98611 0-2.09459-.15151-2.71814.79443-.72229 1.09573-.27436 3.44437-.27436 4.71807V353.39h-3.15v-11.8125c0-1.2737.44793-3.62234-.27437-4.71807-.67284-1.02044-1.97804-.79443-3.03313-.79443h-7.7175c-1.07557 0-2.3762-.19168-2.96431.94736-.62795 1.21653-.18569 3.53005-.18569 4.88014V353.39h-2.0475v-12.285c0-1.25354.45182-3.57131-.50847-4.53159-1.05626-1.05619-3.92489-.50841-5.31903-.50841v-6.3h79.5375m-76.86 9.45v14.175H375.28v-14.175h2.6775m16.2225 0v33.075h-7.875v-33.075h7.875m15.75 0v14.175h-6.3v-14.175h6.3m14.9625 0v14.175h-6.3v-14.175h6.3m16.5375 0v33.075h-7.875v-33.075h7.875m13.3875 0v14.175h-3.15v-14.175h3.15M383.155 356.54v15.75h-7.875v-15.75h7.875m47.25 0v15.75H397.33v-15.75h33.075m24.4125 0v15.75H444.58v-15.75h10.2375m-51.1875 18.9c-.34949 8.11723-12.25051 8.11723-12.6 0h12.6m15.75 0l.1575 1.575h-12.915l.1575-1.575h12.6m15.75 0c-.34949 8.11723-12.25051 8.11723-12.6 0z"/><path id="polygon213" fill="none" stroke="#5b5" stroke-linejoin="round" stroke-miterlimit="10" stroke-width="12.8" d="M489.04 133.13L252 14.26 14.96 133.13v237.74L252 489.74l237.04-118.87z" display="inline"/><g id="text215" fill="#555" opacity="1" text-anchor="middle"><path id="path25" d="M188.75304 216.37161q0-10.00293-5.61482-15.50454-5.54717-5.50161-15.62678-5.50161-10.01197 0-15.62679 5.50161-5.54717 5.50161-5.54717 15.50454 0 9.95291 5.54717 15.45452 5.61482 5.50161 15.62679 5.50161 10.07961 0 15.62678-5.50161 5.61482-5.50161 5.61482-15.45452zm12.44731 21.70635q0 14.30419-8.59135 21.25623-8.59135 7.00205-26.31524 7.00205-6.56189 0-12.37966-.75022-5.81776-.70021-11.29728-2.20065v-8.95262q5.47952 2.20065 10.82374 3.25095 5.34423 1.05031 10.8914 1.05031 12.24436 0 18.33272-4.75139 6.08836-4.70138 6.08836-14.25417v-4.55134q-3.85596 4.95145-9.87667 7.40217-6.02071 2.45072-14.40911 2.45072-13.93558 0-22.45928-7.8523t-8.5237-20.80609q0-13.00381 8.5237-20.85611 8.5237-7.8523 22.45928-7.8523 8.3884 0 14.40911 2.45072 6.02071 2.45072 9.87667 7.40217v-8.50249h12.44731z"/><path id="path27" d="M239.15111 173.10894v15.90466h25.63875v7.15209h-25.63875v30.4089q0 6.85201 2.503 8.80258 2.57064 1.95057 10.3502 1.95057h12.78555V245.03h-12.78555q-14.40911 0-19.88863-3.95116-5.47952-4.00117-5.47952-14.50425v-30.4089h-9.13254v-7.15209h9.13254v-15.90466z"/><path id="path29" d="M319.51743 167.20721v7.65224H307.6113q-6.69719 0-9.33548 2.00059-2.57064 2.00058-2.57064 7.20211v4.95145h20.49747v7.15209h-20.49747V245.03h-12.51496v-48.86431H271.2841v-7.15209h11.90612v-3.90115q0-9.35274 5.88542-13.60398 5.88541-4.30126 18.67096-4.30126z"/><path id="path31" d="M378.23626 190.66408v8.70255q-5.27657-2.00059-10.95904-3.00088-5.68247-1.00029-11.77082-1.00029-9.26784 0-13.93558 2.10061-4.60009 2.10062-4.60009 6.30185 0 3.20093 3.31477 5.05148 3.31477 1.80052 13.32674 3.45101l4.26185.7002q13.25909 2.10062 18.80626 5.95174 5.61482 3.80112 5.61482 10.65312 0 7.80229-8.38841 12.35362-8.32075 4.55133-22.93281 4.55133-6.08836 0-12.7179-.90026-6.5619-.85025-13.86793-2.60076v-9.50278q6.90014 2.65077 13.59733 4.00117 6.6972 1.30038 13.25909 1.30038 8.7943 0 13.52969-2.20065 4.73539-2.25066 4.73539-6.30184 0-3.7511-3.45007-5.75169-3.38242-2.00058-14.9503-3.85112l-4.3295-.75022q-11.56788-1.80053-16.70916-5.50161-5.14128-3.7511-5.14128-10.25301 0-7.90231 7.57662-12.20357 7.57663-4.30126 21.5122-4.30126 6.90014 0 12.9885.75022 6.08835.75022 11.22963 2.25066z"/></g><g id="text217" fill="#5b5" text-anchor="middle"><path id="path34" d="M183.27303 211.62161q0-10.00293-5.61482-15.50454-5.54717-5.50161-15.62679-5.50161-10.01196 0-15.62678 5.50161-5.54717 5.50161-5.54717 15.50454 0 9.95291 5.54717 15.45452 5.61482 5.50161 15.62678 5.50161 10.07962 0 15.62679-5.50161 5.61482-5.50161 5.61482-15.45452zm12.44731 21.70635q0 14.30419-8.59135 21.25623-8.59135 7.00205-26.31524 7.00205-6.56189 0-12.37966-.75022-5.81776-.70021-11.29728-2.20065v-8.95262q5.47952 2.20065 10.82374 3.25095 5.34423 1.05031 10.8914 1.05031 12.24436 0 18.33272-4.75139 6.08836-4.70138 6.08836-14.25417v-4.55134q-3.85596 4.95145-9.87667 7.40217-6.02071 2.45072-14.40911 2.45072-13.93558 0-22.45928-7.8523t-8.5237-20.80609q0-13.00381 8.5237-20.85611 8.5237-7.8523 22.45928-7.8523 8.3884 0 14.40911 2.45072 6.02071 2.45072 9.87667 7.40217v-8.50249h12.44731z"/><path id="path36" d="M233.6711 168.35894v15.90466h25.63875v7.15209H233.6711v30.4089q0 6.85201 2.50299 8.80258 2.57064 1.95057 10.35021 1.95057h12.78555V240.28H246.5243q-14.40911 0-19.88863-3.95116-5.47952-4.00117-5.47952-14.50425v-30.4089h-9.13254v-7.15209h9.13254v-15.90466z"/><path id="path38" d="M314.03741 162.45721v7.65224h-11.90612q-6.69719 0-9.33548 2.00059-2.57064 2.00058-2.57064 7.20211v4.95145h20.49747v7.15209h-20.49747V240.28h-12.51496v-48.86431h-11.90612v-7.15209h11.90612v-3.90115q0-9.35274 5.88542-13.60398 5.88541-4.30126 18.67096-4.30126z"/><path id="path40" d="M372.75625 185.91408v8.70255q-5.27657-2.00059-10.95904-3.00088-5.68247-1.00029-11.77083-1.00029-9.26783 0-13.93557 2.10061-4.60009 2.10062-4.60009 6.30185 0 3.20093 3.31477 5.05148 3.31477 1.80052 13.32674 3.45101l4.26185.7002q13.25909 2.10062 18.80626 5.95174 5.61482 3.80112 5.61482 10.65312 0 7.80229-8.38841 12.35362-8.32075 4.55133-22.93281 4.55133-6.08836 0-12.7179-.90026-6.5619-.85025-13.86793-2.60076v-9.50278q6.90014 2.65077 13.59733 4.00117 6.6972 1.30038 13.25909 1.30038 8.7943 0 13.52969-2.20065 4.73539-2.25066 4.73539-6.30184 0-3.7511-3.45007-5.75169-3.38242-2.00058-14.9503-3.85112l-4.3295-.75022q-11.56788-1.80053-16.70916-5.50161-5.14128-3.7511-5.14128-10.25301 0-7.90231 7.57662-12.20357 7.57662-4.30126 21.5122-4.30126 6.90014 0 12.9885.75022 6.08835.75022 11.22963 2.25066z"/></g><g id="text219" fill="#555" text-anchor="middle"><path id="path43" d="M125.56426 294.0038q-1.78965-.80024-3.92569-1.15591-2.0783-.40012-4.61845-.40012-9.00599 0-13.85537 4.53472-4.79164 4.49026-4.79164 12.93728v26.23022H87.69293v-49.79297h10.68018v7.7357q3.34838-4.53472 8.71733-6.71316 5.36895-2.2229 13.04714-2.2229 1.09688 0 2.42468.13337 1.32781.0889 2.94427.31121z"/><path id="path45" d="M159.16352 292.09211q-8.54414 0-13.50898 5.15713-4.96484 5.11267-4.96484 14.04873 0 8.93606 4.90711 14.09319 4.96484 5.11267 13.56671 5.11267 8.48641 0 13.45125-5.15713 4.96484-5.15713 4.96484-14.04873 0-8.84715-4.96484-14.00428-4.96484-5.20158-13.45125-5.20158zm0-6.93545q13.85536 0 21.76447 6.93545 7.9091 6.93545 7.9091 19.20586 0 12.22595-7.9091 19.20586-7.90911 6.93545-21.76447 6.93545-13.9131 0-21.8222-6.93545-7.85137-6.97991-7.85137-19.20586 0-12.27041 7.85137-19.20586 7.9091-6.93545 21.8222-6.93545z"/><path id="path47" d="M205.34806 316.49955v-30.14253h10.62245v29.83133q0 7.06882 3.5793 10.62546 3.5793 3.51218 10.73791 3.51218 8.60187 0 13.56671-4.22351 5.02257-4.22351 5.02257-11.51462v-28.23084h10.62245v49.79297H248.877v-7.64677q-3.86796 4.53471-9.00599 6.75761-5.0803 2.17845-11.83479 2.17845-11.14202 0-16.91509-5.33496-5.77307-5.33497-5.77307-15.60477zm26.72931-31.34289z"/><path id="path49" d="M291.88636 272.21938v14.13764h21.87993v6.3575h-21.87993v27.03047q0 6.09075 2.13604 7.82461 2.19376 1.73386 8.83279 1.73386h10.9111v6.84653h-10.9111q-12.29663 0-16.97282-3.51218-4.67618-3.55664-4.67618-12.89282v-27.03047h-7.79365v-6.3575h7.79365v-14.13764z"/><path id="path51" d="M383.04312 309.20844v4.00122h-48.84016q.69277 8.44702 6.5813 12.89282 5.94626 4.40135 16.51097 4.40135 6.11945 0 11.83479-1.15591 5.77307-1.15591 11.43068-3.46773v7.7357q-5.71534 1.86723-11.71933 2.84531-6.00399.97808-12.18118.97808-15.47182 0-24.53554-6.93545-9.00598-6.93545-9.00598-18.76128 0-12.22596 8.54414-19.38369 8.60187-7.2022 23.15-7.2022 13.04714 0 20.60986 6.49087 7.62045 6.44641 7.62045 17.56091zm-10.62245-2.40073q-.11546-6.71316-4.90711-10.71438-4.73391-4.00122-12.58529-4.00122-8.89052 0-14.25948 3.86784-5.31122 3.86785-6.11945 10.89222z"/><path id="path53" d="M437.945 294.0038q-1.78965-.80024-3.92569-1.15591-2.0783-.40012-4.61845-.40012-9.00599 0-13.85537 4.53472-4.79165 4.49026-4.79165 12.93728v26.23022h-10.68017v-49.79297h10.68017v7.7357q3.34838-4.53472 8.71734-6.71316 5.36895-2.2229 13.04713-2.2229 1.09689 0 2.42469.13337 1.32781.0889 2.94427.31121z"/></g><g id="text221" fill="#5b5" text-anchor="middle"><path id="path56" d="M120.08425 289.24382q-1.78965-.80024-3.92569-1.15591-2.0783-.40012-4.61845-.40012-9.00599 0-13.85537 4.53472-4.79164 4.49026-4.79164 12.93728v26.23022H82.21292v-49.79297H92.8931v7.7357q3.34838-4.53472 8.71733-6.71316 5.36895-2.2229 13.04714-2.2229 1.09688 0 2.42468.13337 1.32781.0889 2.94427.31121z"/><path id="path58" d="M153.68351 287.33213q-8.54414 0-13.50898 5.15713-4.96484 5.11267-4.96484 14.04873 0 8.93606 4.90711 14.09319 4.96484 5.11267 13.56671 5.11267 8.48641 0 13.45125-5.15713 4.96484-5.15713 4.96484-14.04873 0-8.84715-4.96484-14.00428-4.96484-5.20158-13.45125-5.20158zm0-6.93545q13.85536 0 21.76447 6.93545 7.9091 6.93545 7.9091 19.20586 0 12.22595-7.9091 19.20586-7.90911 6.93545-21.76447 6.93545-13.9131 0-21.8222-6.93545-7.85137-6.97991-7.85137-19.20586 0-12.27041 7.85137-19.20586 7.9091-6.93545 21.8222-6.93545z"/><path id="path60" d="M199.86805 311.73957v-30.14253h10.62245v29.83133q0 7.06882 3.5793 10.62546 3.5793 3.51219 10.73791 3.51219 8.60187 0 13.56671-4.22352 5.02257-4.22351 5.02257-11.51462v-28.23084h10.62245v49.79297h-10.62245v-7.64677q-3.86796 4.53471-9.00599 6.75761-5.0803 2.17845-11.83479 2.17845-11.14202 0-16.91509-5.33496-5.77307-5.33497-5.77307-15.60477zm26.72931-31.34289z"/><path id="path62" d="M286.40635 267.4594v14.13764h21.87993v6.3575h-21.87993v27.03047q0 6.09075 2.13604 7.82461 2.19376 1.73386 8.83279 1.73386h10.9111v6.84653h-10.9111q-12.29663 0-16.97282-3.51218-4.67618-3.55664-4.67618-12.89282v-27.03047h-7.79365v-6.3575h7.79365V267.4594z"/><path id="path64" d="M377.56311 304.44846v4.00122h-48.84016q.69277 8.44702 6.5813 12.89282 5.94626 4.40135 16.51097 4.40135 6.11945 0 11.83479-1.15591 5.77307-1.15591 11.43068-3.46773v7.7357q-5.71534 1.86723-11.71933 2.84531-6.00399.97808-12.18118.97808-15.47182 0-24.53554-6.93545-9.00598-6.93545-9.00598-18.76128 0-12.22595 8.54414-19.38369 8.60187-7.2022 23.15-7.2022 13.04714 0 20.60986 6.49087 7.62045 6.44641 7.62045 17.56091zm-10.62245-2.40073q-.11546-6.71316-4.90711-10.71438-4.73391-4.00122-12.58529-4.00122-8.89052 0-14.25948 3.86784-5.31122 3.86785-6.11945 10.89222z"/><path id="path66" d="M432.46499 289.24382q-1.78965-.80024-3.92569-1.15591-2.0783-.40012-4.61845-.40012-9.00599 0-13.85537 4.53472-4.79165 4.49026-4.79165 12.93728v26.23022h-10.68017v-49.79297h10.68017v7.7357q3.34838-4.53472 8.71734-6.71316 5.36895-2.2229 13.04713-2.2229 1.09689 0 2.42469.13337 1.32781.0889 2.94427.31121z"/></g></g></svg>
