<?xml version="1.0" encoding="UTF-8" standalone="no"?>
<svg
   class="svglite"
   width="504.00pt"
   height="504.00pt"
   viewBox="0 0 504.00 504.00"
   version="1.1"
   id="gtfsrouter-logo"
   xmlns:xlink="http://www.w3.org/1999/xlink"
   xmlns="http://www.w3.org/2000/svg"
   xmlns:svg="http://www.w3.org/2000/svg">
  <defs
     id="defs4">
    <style
       type="text/css"
       id="style2"><![CDATA[
    .svglite line, .svglite polyline, .svglite polygon, .svglite path, .svglite rect, .svglite circle {
      stroke-linecap: round;
      stroke-linejoin: round;
      stroke-miterlimit: 10.00;
    }
    .svglite text {
      white-space: pre;
    }
  ]]></style>
  </defs>
  <rect
     width="100%"
     height="100%"
     style="stroke: none; fill: none;"
     id="rect6" />
  <defs
     id="defs66">
    <symbol
       id="bus"
       fill="none"
       fill-opacity="null"
       stroke="#bbbbbb"
       stroke-dasharray="null"
       stroke-linecap="round"
       stroke-linejoin="null"
       stroke-opacity="null"
       stroke-width="30"
       viewBox="0 0 840 450">
      <!-- Main outline, starting from lower right -->
      <path
         d="M30,360 L30,320         M30,320 a300,300 45 0,1 300,-300         M330,20 L710,20         M710,20 a100,100 0 0,1 100,100         M810,120 L810,360"
         id="path8" />
      <!-- wheels -->
      <circle
         id="bus-wheel-back-large"
         cx="200"
         cy="360"
         r="70" />
      <circle
         id="bus-wheel-back-small"
         cx="200"
         cy="360"
         r="30" />
      <circle
         id="bus-wheel-front-large"
         cx="650"
         cy="360"
         r="70" />
      <circle
         id="bus-wheel-front-small"
         cx="650"
         cy="360"
         r="30" />
      <!-- bottom lines -->
      <line
         id="bus-bottom-line1"
         x1="35"
         x2="120"
         y1="360"
         y2="360" />
      <line
         id="bus-bottom-line2"
         x1="280"
         x2="570"
         y1="360"
         y2="360" />
      <line
         id="bus-bottom-line3"
         x1="730"
         x2="810"
         y1="360"
         y2="360" />
      <!-- windscreen -->
      <path
         id="bus-windscreen"
         d="M800,80 L750,80         M750,80 a30,30 0 0,0 -30,30         M720,110 L720,170         M720,170 a60,60 0 0,0 60,60         M780,230 L810,230         " />
      <!--  windows -->
      <path
         id="bus-window-outline"
         d="M180,180 a100,100 0 0,1 100,-100         M280,80 L580,80         M580,80 a20,20 0 0,1 20,20         M600,100 L600,170         M600,170 a20,20 0 0,1 -20,20         M580,190 L180,190         " />
      <line
         id="bus-window-line1"
         x1="510"
         x2="510"
         y1="180"
         y2="90" />
      <line
         id="bus-window-line2"
         x1="430"
         x2="430"
         y1="180"
         y2="90" />
      <line
         id="bus-window-line3"
         x1="350"
         x2="350"
         y1="180"
         y2="90" />
      <line
         id="bus-window-line4"
         x1="270"
         x2="270"
         y1="180"
         y2="90" />
      <!-- bumper bars -->
      <line
         id="bus-bumper1"
         x1="15"
         x2="60"
         y1="320"
         y2="320" />
      <line
         id="bus-bumper2"
         x1="770"
         x2="825"
         y1="320"
         y2="320" />
      <line
         id="bus-bumper3"
         x1="780"
         x2="800"
         y1="280"
         y2="280" />
    </symbol>
    <!-- end: bus -->
    <symbol
       id="tram"
       fill="none"
       fill-opacity="null"
       stroke="#bbbbbb"
       stroke-dasharray="null"
       stroke-linecap="round"
       stroke-linejoin="null"
       stroke-opacity="null"
       stroke-width="20"
       viewBox="0 0 640 480">
      <path
         id="tram-wheel1"
         d="M150,420 a1,1 0 0,0 100,0" />
      <path
         id="path28"
         d="M350,420 a1,1 0 0,0 100,0" />
      <!-- Line connecting wheels -->
      <line
         id="tram-line-between-wheels"
         x1="250"
         x2="345"
         y1="440"
         y2="440" />
      <!-- Bottom Line -->
      <line
         id="tram-bottom-line"
         x1="50"
         x2="572"
         y1="410"
         y2="410" />
      <!-- Back (LHS) Line -->
      <line
         id="tram-back-line"
         x1="50"
         x2="50"
         y1="410"
         y2="120" />
      <!-- Front (RHS) line -->
      <line
         id="tram-front-line"
         x1="575"
         x2="575"
         y1="410"
         y2="120" />
      <!-- Roof Line -->
      <line
         id="tram-roof-line"
         x1="30"
         x2="595"
         y1="120"
         y2="120" />
      <!-- Front and back nubbins -->
      <line
         id="tram-back-nubbin"
         x1="20"
         x2="40"
         y1="380"
         y2="380" />
      <line
         id="tram-front-nubbin"
         x1="575"
         x2="605"
         y1="380"
         y2="380" />
      <!-- Doors -->
      <path
         id="tram-door-back"
         d="M120,400 L120,180 M120,180 L190,180 M190,180 L190,400 Z" />
      <path
         id="tram-door-front"
         d="M420,400 L420,180 M420,180 L490,180 M490,180 L490,400 Z" />
      <!-- Front and back windows -->
      <line
         id="tram-window-back-line"
         x1="50"
         x2="110"
         y1="290"
         y2="290" />
      <path
         id="tram-window-back-path"
         d="M50,180 L87,180 M87,180 L87,280 Z" />
      <line
         id="tram-window-front-line"
         x1="490"
         x2="570"
         y1="290"
         y2="290" />
      <path
         id="tram-window-front-path"
         d="M570,180 L535,180 M535,180 L535,280 Z" />
      <!-- Mid-line and two windows -->
      <line
         id="tram-mid-line"
         x1="200"
         x2="410"
         y1="290"
         y2="290" />
      <path
         id="tram-window1"
         d="M230,280 L230,180 M230,180 L290,180 M290,180 L290,280 Z" />
      <path
         id="tram-window2"
         d="M325,280 L325,180 M325,180 L385,180 M385,180 L385,280 Z" />
      <!-- Antenna and roof -->
      <line
         id="tram-antenna"
         x1="380"
         x2="320"
         y1="120"
         y2="20" />
      <line
         id="tram-roof-stick"
         x1="550"
         x2="550"
         y1="80"
         y2="110" />
    </symbol>
    <!-- end: tram -->
    <symbol
       id="train"
       fill="none"
       fill-opacity="null"
       stroke="#bbbbbb"
       stroke-dasharray="null"
       stroke-linecap="round"
       stroke-linejoin="null"
       stroke-opacity="null"
       stroke-width="30"
       viewBox="0 0 740 520">
      <!-- Main outline, starting from upper left -->
      <path
         id="traim-outline-main"
         d="M30,60 L420,60         M420,60 a300,300 45 0,1 300,300         M720,360 L720,430         M720,430 a50,50 0 0,1 -50,50         M670,480 L570,480         M570,480 L480,400         M480,400 L80,400         " />
      <!-- straight lines -->
      <line
         id="train-line1"
         x1="540"
         x2="640"
         y1="400"
         y2="400" />
      <line
         id="train-line2"
         x1="690"
         x2="720"
         y1="400"
         y2="400" />
      <line
         id="train-line3"
         x1="50"
         x2="640"
         y1="320"
         y2="320" />
      <line
         id="train-line4"
         x1="30"
         x2="100"
         y1="240"
         y2="240" />
      <line
         id="train-line5"
         x1="50"
         x2="100"
         y1="160"
         y2="160" />
      <!-- wheels -->
      <path
         id="train-wheel1"
         d="M70,450 a1,1 0 0,0 100,0" />
      <circle
         id="train-wheel-dot1"
         cx="120"
         cy="450"
         r="15"
         stroke="none"
         stroke-width="0" />
      <path
         id="train-wheel2"
         d="M210,450 a1,1 0 0,0 100,0" />
      <circle
         id="train-wheel-dot2"
         cx="260"
         cy="450"
         r="15"
         stroke="none"
         stroke-width="0" />
      <path
         id="train-wheel3"
         d="M350,450 a1,1 0 0,0 100,0" />
      <circle
         id="train-wheel-dot3"
         cx="400"
         cy="450"
         r="15"
         stroke="none"
         stroke-width="0" />
      <!-- drivers window -->
      <path
         id="train-drivers-window"
         d="M680,230 L470,230 M470,230 L470,120 M470,120 L520,120" />
      <line
         id="train-drivers-window-line"
         x1="600"
         x2="600"
         y1="220"
         y2="200" />
      <!-- windows -->
      <path
         id="train-window1"
         d="M180,230 L180,130 M180,130 L240,130 M240,130 L240,230 M240,230 L180,230" />
      <path
         id="train-window2"
         d="M320,230 L320,130 M320,130 L380,130 M380,130 L380,230 M380,230 L320,230" />
    </symbol>
    <!-- end: train -->
  </defs>
  <g
     id="main-image">
    <!-- left column: bus tram train -->
    <svg
       id="bus-left"
       viewBox="0 0 504 504"
       width="140"
       x="20"
       y="-90"
       version="1.1">
      <use
         xlink:href="#bus"
         id="use68" />
    </svg>
    <svg
       id="tram-left"
       viewBox="0 0 504 504"
       width="140"
       x="20"
       y="-10"
       version="1.1">
      <use
         xlink:href="#tram"
         id="use71" />
    </svg>
    <svg
       id="train-left"
       viewBox="0 0 504 504"
       width="120"
       x="30"
       y="90"
       version="1.1">
      <use
         xlink:href="#train"
         id="use74" />
    </svg>
    <!-- middle column: tram train bus -->
    <svg
       id="tram-middle"
       viewBox="0 0 504 504"
       width="170"
       x="160"
       y="-150"
       version="1.1">
      <use
         xlink:href="#tram"
         id="use77" />
    </svg>
    <svg
       id="train-middle"
       viewBox="0 0 504 504"
       width="180"
       x="160"
       y="0"
       version="1.1">
      <use
         xlink:href="#train"
         id="use80" />
    </svg>
    <svg
       id="bus-middle"
       viewBox="0 0 504 504"
       width="180"
       x="160"
       y="140"
       version="1.1">
      <use
         xlink:href="#bus"
         id="use83" />
    </svg>
    <!-- right column: train bus tram -->
    <svg
       id="train-right"
       viewBox="0 0 504 504"
       width="120"
       x="360"
       y="-90"
       version="1.1">
      <use
         xlink:href="#train"
         id="use86" />
    </svg>
    <svg
       id="bus-right"
       viewBox="0 0 504 504"
       width="120"
       x="360"
       y="10"
       version="1.1">
      <use
         xlink:href="#bus"
         id="use89" />
    </svg>
    <svg
       id="tram-right"
       viewBox="0 0 504 504"
       width="120"
       x="355"
       y="85"
       version="1.1">
      <use
         xlink:href="#tram"
         id="use92" />
    </svg>
    <polygon
       points="14.96,133.13 14.96,370.87 252.00,489.74 489.04,370.87 489.04,133.13 252.00,14.26 14.96,133.13 "
       style="stroke-width: 12.80; stroke: #55BB55; stroke-linecap: butt;"
       fill="none"
       stroke="#000000"
       id="polygon95" />
    <g
       aria-label="gtfs"
       id="gtfs-shadow"
       style="font-size:140px;font-family:'SF Alien Encounters';text-anchor:middle;white-space:pre;fill:#555555">
      <path
         d="m 130.65376,155.43 q 2.56051,-8.4 9.42266,-8.4 h 51.21008 v 8.4 z m -0.81936,11.2 v -5.6 q 0,-0.98 0.10242,-1.4 0,-0.28 0,-0.56 0.10242,-0.42 0.10242,-0.84 h 61.24726 v 8.4 z m 0,11.2 v -8.4 h 15.36303 v 8.4 z m 25.60504,11.2 v -8.4 h 35.84706 v 8.4 z m -25.60504,0 v -8.4 h 15.36303 v 8.4 z m 25.60504,11.2 v -8.4 h 35.84706 v 8.4 z m -25.60504,0 v -8.4 h 15.36303 v 8.4 z m 46.08908,11.2 v -8.4 h 15.36302 v 8.4 z m -46.08908,0 v -8.4 h 15.36303 v 8.4 z m 46.08908,11.2 v -8.4 h 15.36302 v 8.4 z m -46.08908,0 v -8.4 h 15.36303 v 8.4 z m 0.20484,11.2 q 0,-0.42 -0.10242,-0.7 0,-0.42 0,-0.7 -0.10242,-0.42 -0.10242,-1.4 v -5.6 h 61.4521 v 8.4 z m 10.03718,11.2 q -6.86215,0 -9.42266,-8.4 h 60.63274 v 8.4 z"
         id="path245" />
      <path
         d="m 196.40746,155.43 v -8.4 h 61.45209 v 8.4 z m 0,11.2 v -8.4 h 61.45209 v 8.4 z m 24.06873,11.2 v -8.4 h 15.36303 v 8.4 z m 0,11.2 v -8.4 h 15.36303 v 8.4 z m 0,11.2 v -8.4 h 15.36303 v 8.4 z m 0,11.2 v -8.4 h 15.36303 v 8.4 z m 0,11.2 v -8.4 h 15.36303 v 8.4 z m 0,11.2 v -8.4 h 15.36303 v 8.4 z m 0,11.2 v -8.4 h 15.36303 v 8.4 z"
         id="path247" />
      <path
         d="m 264.10724,155.43 q 2.56051,-8.4 9.42266,-8.4 h 46.08907 v 8.4 z m -0.81936,11.2 v -5.6 q 0,-0.98 0.10242,-1.4 0,-0.28 0,-0.56 0.10242,-0.42 0.10242,-0.84 h 56.12625 v 8.4 z m 0,11.2 v -8.4 h 15.36302 v 8.4 z m 0,11.2 v -8.4 h 56.33109 v 8.4 z m 0,11.2 v -8.4 h 56.33109 v 8.4 z m 0,11.2 v -8.4 h 15.36302 v 8.4 z m 0,11.2 v -8.4 h 15.36302 v 8.4 z m 0,11.2 v -8.4 h 15.36302 v 8.4 z m 0,11.2 v -8.4 h 15.36302 v 8.4 z"
         id="path249" />
      <path
         d="m 324.63764,155.43 q 2.5605,-8.4 9.42265,-8.4 h 51.21008 v 8.4 z m -0.81937,11.2 v -5.6 q 0,-0.98 0.10243,-1.4 0,-0.28 0,-0.56 0.10242,-0.42 0.10242,-0.84 h 61.24725 v 8.4 z m 0,11.2 v -8.4 h 15.36303 v 8.4 z m 0.20485,11.2 q 0,-0.42 -0.10242,-0.7 0,-0.42 0,-0.7 -0.10243,-0.42 -0.10243,-1.4 v -5.6 h 51.21009 q 6.75973,0 9.42265,8.4 z m 10.03717,11.2 q -6.86215,0 -9.42265,-8.4 h 60.42789 q 0,0.42 0,0.84 0.10242,0.28 0.10242,0.56 0.10242,0.42 0.10242,1.4 v 5.6 z m 35.84706,11.2 v -8.4 h 15.36302 v 8.4 z m 0,11.2 v -8.4 h 15.36302 v 8.4 z m 15.36302,8.4 q 0,0.98 -0.10242,1.4 0,0.28 -0.10242,0.7 0,0.28 0,0.7 h -61.24726 v -8.4 h 61.4521 z m -0.81936,5.6 q -2.66292,8.4 -9.42265,8.4 h -51.21009 v -8.4 z"
         id="path251" />
    </g>
    <g
       aria-label="gtfs"
       id="gtfs-text"
       style="font-size:140px;font-family:'SF Alien Encounters';text-anchor:middle;white-space:pre;fill:#55bb55">
      <path
         d="m 125.17375,150.68 q 2.56051,-8.4 9.42266,-8.4 h 51.21008 v 8.4 z m -0.81936,11.2 v -5.6 q 0,-0.98 0.10242,-1.4 0,-0.28 0,-0.56 0.10242,-0.42 0.10242,-0.84 h 61.24726 v 8.4 z m 0,11.2 v -8.4 h 15.36302 v 8.4 z m 25.60504,11.2 v -8.4 h 35.84706 v 8.4 z m -25.60504,0 v -8.4 h 15.36302 v 8.4 z m 25.60504,11.2 v -8.4 h 35.84706 v 8.4 z m -25.60504,0 v -8.4 h 15.36302 v 8.4 z m 46.08907,11.2 v -8.4 h 15.36303 v 8.4 z m -46.08907,0 v -8.4 h 15.36302 v 8.4 z m 46.08907,11.2 v -8.4 h 15.36303 v 8.4 z m -46.08907,0 v -8.4 h 15.36302 v 8.4 z m 0.20484,11.2 q 0,-0.42 -0.10242,-0.7 0,-0.42 0,-0.7 -0.10242,-0.42 -0.10242,-1.4 v -5.6 h 61.4521 v 8.4 z m 10.03718,11.2 q -6.86215,0 -9.42266,-8.4 h 60.63274 v 8.4 z"
         id="path236" />
      <path
         d="m 190.92744,150.68 v -8.4 h 61.4521 v 8.4 z m 0,11.2 v -8.4 h 61.4521 v 8.4 z m 24.06874,11.2 v -8.4 h 15.36303 v 8.4 z m 0,11.2 v -8.4 h 15.36303 v 8.4 z m 0,11.2 v -8.4 h 15.36303 v 8.4 z m 0,11.2 v -8.4 h 15.36303 v 8.4 z m 0,11.2 v -8.4 h 15.36303 v 8.4 z m 0,11.2 v -8.4 h 15.36303 v 8.4 z m 0,11.2 v -8.4 h 15.36303 v 8.4 z"
         id="path238" />
      <path
         d="m 258.62723,150.68 q 2.5605,-8.4 9.42266,-8.4 h 46.08907 v 8.4 z m -0.81936,11.2 v -5.6 q 0,-0.98 0.10242,-1.4 0,-0.28 0,-0.56 0.10242,-0.42 0.10242,-0.84 h 56.12625 v 8.4 z m 0,11.2 v -8.4 h 15.36302 v 8.4 z m 0,11.2 v -8.4 h 56.33109 v 8.4 z m 0,11.2 v -8.4 h 56.33109 v 8.4 z m 0,11.2 v -8.4 h 15.36302 v 8.4 z m 0,11.2 v -8.4 h 15.36302 v 8.4 z m 0,11.2 v -8.4 h 15.36302 v 8.4 z m 0,11.2 v -8.4 h 15.36302 v 8.4 z"
         id="path240" />
      <path
         d="m 319.15763,150.68 q 2.5605,-8.4 9.42265,-8.4 h 51.21008 v 8.4 z m -0.81937,11.2 v -5.6 q 0,-0.98 0.10242,-1.4 0,-0.28 0,-0.56 0.10242,-0.42 0.10242,-0.84 h 61.24726 v 8.4 z m 0,11.2 v -8.4 h 15.36303 v 8.4 z m 0.20484,11.2 q 0,-0.42 -0.10242,-0.7 0,-0.42 0,-0.7 -0.10242,-0.42 -0.10242,-1.4 v -5.6 h 51.21009 q 6.75973,0 9.42265,8.4 z m 10.03718,11.2 q -6.86215,0 -9.42265,-8.4 h 60.42789 q 0,0.42 0,0.84 0.10242,0.28 0.10242,0.56 0.10242,0.42 0.10242,1.4 v 5.6 z m 35.84706,11.2 v -8.4 h 15.36302 v 8.4 z m 0,11.2 v -8.4 h 15.36302 v 8.4 z m 15.36302,8.4 q 0,0.98 -0.10242,1.4 0,0.28 -0.10242,0.7 0,0.28 0,0.7 h -61.24726 v -8.4 h 61.4521 z m -0.81936,5.6 q -2.66292,8.4 -9.42265,8.4 h -51.21009 v -8.4 z"
         id="path242" />
    </g>
    <g
       aria-label="router"
       id="router-shadow"
       style="font-size:120px;font-family:'SF Alien Encounters';text-anchor:middle;white-space:pre;fill:#555555">
      <path
         d="m 80.687826,269.34999 v -7.2 h 45.522064 q 6.00891,0 8.37606,7.2 z m 0,9.6 v -7.2 h 54.444394 q 0,0.36 0,0.72 0.091,0.24 0.091,0.48 0.091,0.36 0.091,1.2 v 4.8 z m 54.626474,7.2 q 0,0.84 -0.091,1.2 0,0.24 -0.091,0.6 0,0.24 0,0.6 h -13.47454 v -7.2 h 13.65662 z m -54.626474,2.4 v -7.2 h 13.65662 v 7.2 z m 53.898124,2.4 q -2.36715,7.2 -8.37606,7.2 H 80.687826 v -7.2 z m -53.898124,16.8 v -7.2 h 45.522064 q 6.00891,0 8.37606,7.2 z m 40.969854,9.6 v -7.2 h 13.47454 q 0,0.36 0,0.72 0.091,0.24 0.091,0.48 0.091,0.36 0.091,1.2 v 4.8 z m -40.969854,0 v -7.2 h 13.65662 v 7.2 z m 40.969854,9.6 v -7.2 h 13.65662 v 7.2 z m -40.969854,0 v -7.2 h 13.65662 v 7.2 z m 40.969854,9.6 v -7.2 h 13.65662 v 7.2 z m -40.969854,0 v -7.2 h 13.65662 v 7.2 z m 40.969854,9.6 v -7.2 h 13.65662 v 7.2 z m -40.969854,0 v -7.2 h 13.65662 v 7.2 z"
         id="path223" />
      <path
         d="m 143.14413,269.34999 q 2.2761,-7.2 8.37606,-7.2 h 36.41765 q 6.00891,0 8.37606,7.2 z m -0.72836,9.6 v -4.8 q 0,-0.84 0.091,-1.2 0,-0.24 0,-0.48 0.091,-0.36 0.091,-0.72 h 54.2623 q 0,0.36 0,0.72 0.091,0.24 0.091,0.48 0.091,0.36 0.091,1.2 v 4.8 z m 40.96986,9.6 v -7.2 h 13.65662 v 7.2 z m -40.96986,0 v -7.2 h 13.65662 v 7.2 z m 40.96986,9.6 v -7.2 h 13.65662 v 7.2 z m -40.96986,0 v -7.2 h 13.65662 v 7.2 z m 40.96986,9.6 v -7.2 h 13.65662 v 7.2 z m -40.96986,0 v -7.2 h 13.65662 v 7.2 z m 40.96986,9.6 v -7.2 h 13.65662 v 7.2 z m -40.96986,0 v -7.2 h 13.65662 v 7.2 z m 40.96986,9.6 v -7.2 h 13.65662 v 7.2 z m -40.96986,0 v -7.2 h 13.65662 v 7.2 z m 54.62648,7.2 q 0,0.84 -0.091,1.2 0,0.24 -0.091,0.6 0,0.24 0,0.6 h -54.2623 q 0,-0.36 -0.091,-0.6 0,-0.36 0,-0.6 -0.091,-0.36 -0.091,-1.2 v -4.8 h 54.62648 z m -0.72835,4.8 q -2.36715,7.2 -8.37606,7.2 h -36.41765 q -6.09996,0 -8.37606,-7.2 z"
         id="path225" />
      <path
         d="m 245.20455,269.34999 v -7.2 h 13.65662 v 7.2 z m -40.96986,0 v -7.2 h 13.65662 v 7.2 z m 40.96986,9.6 v -7.2 h 13.65662 v 7.2 z m -40.96986,0 v -7.2 h 13.65662 v 7.2 z m 40.96986,9.6 v -7.2 h 13.65662 v 7.2 z m -40.96986,0 v -7.2 h 13.65662 v 7.2 z m 40.96986,9.6 v -7.2 h 13.65662 v 7.2 z m -40.96986,0 v -7.2 h 13.65662 v 7.2 z m 40.96986,9.6 v -7.2 h 13.65662 v 7.2 z m -40.96986,0 v -7.2 h 13.65662 v 7.2 z m 40.96986,9.6 v -7.2 h 13.65662 v 7.2 z m -40.96986,0 v -7.2 h 13.65662 v 7.2 z m 40.96986,9.6 v -7.2 h 13.65662 v 7.2 z m -40.96986,0 v -7.2 h 13.65662 v 7.2 z m 54.62648,7.2 q 0,0.84 -0.091,1.2 0,0.24 -0.091,0.6 0,0.24 0,0.6 h -54.2623 q 0,-0.36 -0.091,-0.6 0,-0.36 0,-0.6 -0.091,-0.36 -0.091,-1.2 v -4.8 h 54.62648 z m -0.72835,4.8 q -2.36715,7.2 -8.37606,7.2 H 213.3391 q -6.09995,0 -8.37606,-7.2 z"
         id="path227" />
      <path
         d="m 263.50445,269.34999 v -7.2 h 54.62647 v 7.2 z m 0,9.6 v -7.2 h 54.62647 v 7.2 z m 21.39537,9.6 v -7.2 h 13.65662 v 7.2 z m 0,9.6 v -7.2 h 13.65662 v 7.2 z m 0,9.6 v -7.2 h 13.65662 v 7.2 z m 0,9.6 v -7.2 h 13.65662 v 7.2 z m 0,9.6 v -7.2 h 13.65662 v 7.2 z m 0,9.6 v -7.2 h 13.65662 v 7.2 z m 0,9.6 v -7.2 h 13.65662 v 7.2 z"
         id="path229" />
      <path
         d="m 323.50257,269.34999 q 2.27611,-7.2 8.37606,-7.2 h 40.96986 v 7.2 z m -0.72835,9.6 v -4.8 q 0,-0.84 0.091,-1.2 0,-0.24 0,-0.48 0.091,-0.36 0.091,-0.72 h 49.89218 v 7.2 z m 0,9.6 v -7.2 h 13.65662 v 7.2 z m 0,9.6 v -7.2 h 50.07427 v 7.2 z m 0,9.6 v -7.2 h 50.07427 v 7.2 z m 0,9.6 v -7.2 h 13.65662 v 7.2 z m 0,9.6 v -7.2 h 13.65662 v 7.2 z m 0.18209,9.6 q 0,-0.36 -0.091,-0.6 0,-0.36 0,-0.6 -0.091,-0.36 -0.091,-1.2 v -4.8 h 50.07427 v 7.2 z m 8.92232,9.6 q -6.09995,0 -8.37606,-7.2 h 49.34592 v 7.2 z"
         id="path231" />
      <path
         d="m 379.76778,269.34999 v -7.2 h 45.52207 q 6.00891,0 8.37606,7.2 z m 0,9.6 v -7.2 h 54.44439 q 0,0.36 0,0.72 0.091,0.24 0.091,0.48 0.091,0.36 0.091,1.2 v 4.8 z m 54.62648,7.2 q 0,0.84 -0.091,1.2 0,0.24 -0.091,0.6 0,0.24 0,0.6 h -13.47453 v -7.2 h 13.65662 z m -54.62648,2.4 v -7.2 h 13.65662 v 7.2 z m 53.89813,2.4 q -2.36715,7.2 -8.37606,7.2 h -45.52207 v -7.2 z m -53.89813,16.8 v -7.2 h 45.52207 q 6.00891,0 8.37606,7.2 z m 40.96986,9.6 v -7.2 h 13.47453 q 0,0.36 0,0.72 0.091,0.24 0.091,0.48 0.091,0.36 0.091,1.2 v 4.8 z m -40.96986,0 v -7.2 h 13.65662 v 7.2 z m 40.96986,9.6 v -7.2 h 13.65662 v 7.2 z m -40.96986,0 v -7.2 h 13.65662 v 7.2 z m 40.96986,9.6 v -7.2 h 13.65662 v 7.2 z m -40.96986,0 v -7.2 h 13.65662 v 7.2 z m 40.96986,9.6 v -7.2 h 13.65662 v 7.2 z m -40.96986,0 v -7.2 h 13.65662 v 7.2 z"
         id="path233" />
    </g>
    <g
       aria-label="router"
       id="router-text"
       style="font-size:120px;font-family:'SF Alien Encounters';text-anchor:middle;white-space:pre;fill:#55bb55">
      <path
         d="m 75.207815,264.59001 v -7.2 h 45.522065 q 6.00891,0 8.37606,7.2 z m 0,9.6 v -7.2 H 129.6522 q 0,0.36 0,0.72 0.091,0.24 0.091,0.48 0.091,0.36 0.091,1.2 v 4.8 z m 54.626475,7.2 q 0,0.84 -0.091,1.2 0,0.24 -0.091,0.6 0,0.24 0,0.6 h -13.47453 v -7.2 h 13.65662 z m -54.626475,2.4 v -7.2 h 13.65662 v 7.2 z m 53.898125,2.4 q -2.36715,7.2 -8.37606,7.2 H 75.207815 v -7.2 z m -53.898125,16.8 v -7.2 h 45.522065 q 6.00891,0 8.37606,7.2 z m 40.969855,9.6 v -7.2 h 13.47453 q 0,0.36 0,0.72 0.091,0.24 0.091,0.48 0.091,0.36 0.091,1.2 v 4.8 z m -40.969855,0 v -7.2 h 13.65662 v 7.2 z m 40.969855,9.6 v -7.2 h 13.65662 v 7.2 z m -40.969855,0 v -7.2 h 13.65662 v 7.2 z m 40.969855,9.6 v -7.2 h 13.65662 v 7.2 z m -40.969855,0 v -7.2 h 13.65662 v 7.2 z m 40.969855,9.6 v -7.2 h 13.65662 v 7.2 z m -40.969855,0 v -7.2 h 13.65662 v 7.2 z"
         id="path210" />
      <path
         d="m 137.66411,264.59001 q 2.27611,-7.2 8.37606,-7.2 h 36.41766 q 6.00891,0 8.37606,7.2 z m -0.72835,9.6 v -4.8 q 0,-0.84 0.0911,-1.2 0,-0.24 0,-0.48 0.091,-0.36 0.091,-0.72 h 54.2623 q 0,0.36 0,0.72 0.091,0.24 0.091,0.48 0.091,0.36 0.091,1.2 v 4.8 z m 40.96986,9.6 v -7.2 h 13.65662 v 7.2 z m -40.96986,0 v -7.2 h 13.65662 v 7.2 z m 40.96986,9.6 v -7.2 h 13.65662 v 7.2 z m -40.96986,0 v -7.2 h 13.65662 v 7.2 z m 40.96986,9.6 v -7.2 h 13.65662 v 7.2 z m -40.96986,0 v -7.2 h 13.65662 v 7.2 z m 40.96986,9.6 v -7.2 h 13.65662 v 7.2 z m -40.96986,0 v -7.2 h 13.65662 v 7.2 z m 40.96986,9.6 v -7.2 h 13.65662 v 7.2 z m -40.96986,0 v -7.2 h 13.65662 v 7.2 z m 54.62648,7.2 q 0,0.84 -0.091,1.2 0,0.24 -0.091,0.6 0,0.24 0,0.6 h -54.2623 q 0,-0.36 -0.091,-0.6 0,-0.36 0,-0.6 -0.0911,-0.36 -0.0911,-1.2 v -4.8 h 54.62648 z m -0.72835,4.8 q -2.36715,7.2 -8.37606,7.2 h -36.41766 q -6.09995,0 -8.37606,-7.2 z"
         id="path212" />
      <path
         d="m 239.72454,264.59001 v -7.2 h 13.65662 v 7.2 z m -40.96986,0 v -7.2 h 13.65662 v 7.2 z m 40.96986,9.6 v -7.2 h 13.65662 v 7.2 z m -40.96986,0 v -7.2 h 13.65662 v 7.2 z m 40.96986,9.6 v -7.2 h 13.65662 v 7.2 z m -40.96986,0 v -7.2 h 13.65662 v 7.2 z m 40.96986,9.6 v -7.2 h 13.65662 v 7.2 z m -40.96986,0 v -7.2 h 13.65662 v 7.2 z m 40.96986,9.6 v -7.2 h 13.65662 v 7.2 z m -40.96986,0 v -7.2 h 13.65662 v 7.2 z m 40.96986,9.6 v -7.2 h 13.65662 v 7.2 z m -40.96986,0 v -7.2 h 13.65662 v 7.2 z m 40.96986,9.6 v -7.2 h 13.65662 v 7.2 z m -40.96986,0 v -7.2 h 13.65662 v 7.2 z m 54.62648,7.2 q 0,0.84 -0.091,1.2 0,0.24 -0.091,0.6 0,0.24 0,0.6 h -54.2623 q 0,-0.36 -0.091,-0.6 0,-0.36 0,-0.6 -0.091,-0.36 -0.091,-1.2 v -4.8 h 54.62648 z m -0.72836,4.8 q -2.36714,7.2 -8.37606,7.2 h -36.41765 q -6.09995,0 -8.37606,-7.2 z"
         id="path214" />
      <path
         d="m 258.02443,264.59001 v -7.2 h 54.62648 v 7.2 z m 0,9.6 v -7.2 h 54.62648 v 7.2 z m 21.39537,9.6 v -7.2 h 13.65662 v 7.2 z m 0,9.6 v -7.2 h 13.65662 v 7.2 z m 0,9.6 v -7.2 h 13.65662 v 7.2 z m 0,9.6 v -7.2 h 13.65662 v 7.2 z m 0,9.6 v -7.2 h 13.65662 v 7.2 z m 0,9.6 v -7.2 h 13.65662 v 7.2 z m 0,9.6 v -7.2 h 13.65662 v 7.2 z"
         id="path216" />
      <path
         d="m 318.02256,264.59001 q 2.27611,-7.2 8.37606,-7.2 h 40.96986 v 7.2 z m -0.72835,9.6 v -4.8 q 0,-0.84 0.091,-1.2 0,-0.24 0,-0.48 0.091,-0.36 0.091,-0.72 h 49.89218 v 7.2 z m 0,9.6 v -7.2 h 13.65662 v 7.2 z m 0,9.6 v -7.2 h 50.07427 v 7.2 z m 0,9.6 v -7.2 h 50.07427 v 7.2 z m 0,9.6 v -7.2 h 13.65662 v 7.2 z m 0,9.6 v -7.2 h 13.65662 v 7.2 z m 0.18209,9.6 q 0,-0.36 -0.091,-0.6 0,-0.36 0,-0.6 -0.091,-0.36 -0.091,-1.2 v -4.8 h 50.07427 v 7.2 z m 8.92232,9.6 q -6.09995,0 -8.37606,-7.2 h 49.34592 v 7.2 z"
         id="path218" />
      <path
         d="m 374.28777,264.59001 v -7.2 h 45.52207 q 6.00891,0 8.37606,7.2 z m 0,9.6 v -7.2 h 54.44439 q 0,0.36 0,0.72 0.091,0.24 0.091,0.48 0.091,0.36 0.091,1.2 v 4.8 z m 54.62648,7.2 q 0,0.84 -0.091,1.2 0,0.24 -0.091,0.6 0,0.24 0,0.6 h -13.47453 v -7.2 h 13.65662 z m -54.62648,2.4 v -7.2 h 13.65662 v 7.2 z m 53.89813,2.4 q -2.36715,7.2 -8.37606,7.2 h -45.52207 v -7.2 z m -53.89813,16.8 v -7.2 h 45.52207 q 6.00891,0 8.37606,7.2 z m 40.96986,9.6 v -7.2 h 13.47453 q 0,0.36 0,0.72 0.091,0.24 0.091,0.48 0.091,0.36 0.091,1.2 v 4.8 z m -40.96986,0 v -7.2 h 13.65662 v 7.2 z m 40.96986,9.6 v -7.2 h 13.65662 v 7.2 z m -40.96986,0 v -7.2 h 13.65662 v 7.2 z m 40.96986,9.6 v -7.2 h 13.65662 v 7.2 z m -40.96986,0 v -7.2 h 13.65662 v 7.2 z m 40.96986,9.6 v -7.2 h 13.65662 v 7.2 z m -40.96986,0 v -7.2 h 13.65662 v 7.2 z"
         id="path220" />
    </g>
  </g>
</svg>
