<?xml version='1.0' encoding='UTF-8' ?>
<svg xmlns='http://www.w3.org/2000/svg' xmlns:xlink='http://www.w3.org/1999/xlink' class='svglite' width='504.00pt' height='504.00pt' viewBox='0 0 504.00 504.00'>
<defs>
  <style type='text/css'><![CDATA[
    .svglite line, .svglite polyline, .svglite polygon, .svglite path, .svglite rect, .svglite circle {
      fill: none;
      stroke: #000000;
      stroke-linecap: round;
      stroke-linejoin: round;
      stroke-miterlimit: 10.00;
    }
    .svglite text {
      white-space: pre;
    }
  ]]></style>
</defs>
<rect width='100%' height='100%' style='stroke: none; fill: none;'/>

<defs>

  <symbol
    id="bus"
    fill="none"
    fill-opacity="null"
    stroke="#9b9b9b"
    stroke-dasharray="null"
    stroke-linecap="round"
    stroke-linejoin="null"
    stroke-opacity="null"
    stroke-width="30"
    viewBox="0 0 840 450">
      <!-- Main outline, starting from lower right -->
      <path d="M30,360 L30,320
        M30,320 a300,300 45 0,1 300,-300
        M330,20 L710,20
        M710,20 a100,100 0 0,1 100,100
        M810,120 L810,360" />
      <!-- wheels -->
      <circle id="bus-wheel-back-large" cx="200" cy="360" r="70" />
      <circle id="bus-wheel-back-small" cx="200" cy="360" r="30" />
      <circle id="bus-wheel-front-large" cx="650" cy="360" r="70" />
      <circle id="bus-wheel-front-small" cx="650" cy="360" r="30" />
      <!-- bottom lines -->
      <line id="bus-bottom-line1" x1="35" x2="120" y1="360" y2="360"/>
      <line id="bus-bottom-line2" x1="280" x2="570" y1="360" y2="360"/>
      <line id="bus-bottom-line3" x1="730" x2="810" y1="360" y2="360"/>
      <!-- windscreen -->
      <path 
        id="bus-windscreen"
        d="M800,80 L750,80
        M750,80 a30,30 0 0,0 -30,30
        M720,110 L720,170
        M720,170 a60,60 0 0,0 60,60
        M780,230 L810,230
        " />
      <!--  windows -->
      <path id="bus-window-outline" d="M180,180 a100,100 0 0,1 100,-100
        M280,80 L580,80
        M580,80 a20,20 0 0,1 20,20
        M600,100 L600,170
        M600,170 a20,20 0 0,1 -20,20
        M580,190 L180,190
        " />
      <line id="bus-window-line1" x1="510" x2="510" y1="180" y2="90"/>
      <line id="bus-window-line2" x1="430" x2="430" y1="180" y2="90"/>
      <line id="bus-window-line3" x1="350" x2="350" y1="180" y2="90"/>
      <line id="bus-window-line4" x1="270" x2="270" y1="180" y2="90"/>
      <!-- bumper bars -->
      <line id="bus-bumper1" x1="15" x2="60" y1="320" y2="320"/>
      <line id="bus-bumper2" x1="770" x2="825" y1="320" y2="320"/>
      <line id="bus-bumper3" x1="780" x2="800" y1="280" y2="280"/>

  </symbol> <!-- end: bus -->

  <symbol
    id="tram"
    fill="none"
    fill-opacity="null"
    stroke="#9b9b9b"
    stroke-dasharray="null"
    stroke-linecap="round"
    stroke-linejoin="null"
    stroke-opacity="null"
    stroke-width="20"
    viewBox="0 0 640 480">
      <path id="tram-wheel1" d="M150,420 a1,1 0 0,0 100,0" />
      <path id="tram-wheel1" d="M350,420 a1,1 0 0,0 100,0" />
      <!-- Line connecting wheels -->
      <line id="tram-line-between-wheels" x1="250" x2="345" y1="440" y2="440"/>
      <!-- Bottom Line -->
      <line id="tram-bottom-line" x1="50" x2="572" y1="410" y2="410"/>
      <!-- Back (LHS) Line -->
      <line id="tram-back-line" x1="50" x2="50" y1="410" y2="120"/>
      <!-- Front (RHS) line -->
      <line id="tram-front-line" x1="575" x2="575" y1="410" y2="120"/>
      <!-- Roof Line -->
      <line id="tram-roof-line" x1="30" x2="595" y1="120" y2="120"/>
      <!-- Front and back nubbins -->
      <line id="tram-back-nubbin" x1="20" x2="40" y1="380" y2="380"/>
      <line id="tram-front-nubbin" x1="575" x2="605" y1="380" y2="380"/>
      <!-- Doors -->
      <path id="tram-door-back" d="M120,400 L120,180 M120,180 L190,180 M190,180 L190,400 Z" />
      <path id="tram-door-front" d="M420,400 L420,180 M420,180 L490,180 M490,180 L490,400 Z" />
      <!-- Front and back windows -->
      <line id="tram-window-back-line" x1="50" x2="110" y1="290" y2="290"/>
      <path id="tram-window-back-path" d="M50,180 L87,180 M87,180 L87,280 Z" />
      <line id="tram-window-front-line" x1="490" x2="570" y1="290" y2="290"/>
      <path id="tram-window-front-path" d="M570,180 L535,180 M535,180 L535,280 Z" />
      <!-- Mid-line and two windows -->
      <line id="tram-mid-line" x1="200" x2="410" y1="290" y2="290"/>
      <path id="tram-window1" d="M230,280 L230,180 M230,180 L290,180 M290,180 L290,280 Z" />
      <path id="tram-window2" d="M325,280 L325,180 M325,180 L385,180 M385,180 L385,280 Z" />
      <!-- Antenna and roof -->
      <line id="tram-antenna" x1="380" x2="320" y1="120" y2="20"/>
      <line id="tram-roof-stick" x1="550" x2="550" y1="80" y2="110"/>
  </symbol> <!-- end: tram -->

  <symbol
    id="train"
    fill="none"
    fill-opacity="null"
    stroke="#9b9b9b"
    stroke-dasharray="null"
    stroke-linecap="round"
    stroke-linejoin="null"
    stroke-opacity="null"
    stroke-width="30"
    viewBox="0 0 740 520">
      <!-- Main outline, starting from upper left -->
      <path id="traim-outline-main" d="M30,60 L420,60
        M420,60 a300,300 45 0,1 300,300
        M720,360 L720,430
        M720,430 a50,50 0 0,1 -50,50
        M670,480 L570,480
        M570,480 L480,400
        M480,400 L80,400
        " />
      <!-- straight lines -->
      <line id="train-line1" x1="540" x2="640" y1="400" y2="400"/>
      <line id="train-line2" x1="690" x2="720" y1="400" y2="400"/>
      <line id="train-line3" x1="50" x2="640" y1="320" y2="320"/>
      <line id="train-line4" x1="30" x2="100" y1="240" y2="240"/>
      <line id="train-line5" x1="50" x2="100" y1="160" y2="160"/>
      <!-- wheels -->
      <path id="train-wheel1" d="M70,450 a1,1 0 0,0 100,0" />
      <circle id="train-wheel-dot1" cx="120" cy="450" r="15" fill="#9b9b9b" stroke="none" stroke-width="0" />
      <path id="train-wheel2" d="M210,450 a1,1 0 0,0 100,0" />
      <circle id="train-wheel-dot2" cx="260" cy="450" r="15" fill="#9b9b9b" stroke="none" stroke-width="0" />
      <path id="train-wheel3" d="M350,450 a1,1 0 0,0 100,0" />
      <circle id="train-wheel-dot3" cx="400" cy="450" r="15" fill="#9b9b9b" stroke="none" stroke-width="0" />
      <!-- drivers window -->
      <path id="train-drivers-window" d="M680,230 L470,230 M470,230 L470,120 M470,120 L520,120" />
      <line id="train-drivers-window-line" x1="600" x2="600" y1="220" y2="200"/>
      <!-- windows -->
      <path id="train-window1" d="M180,230 L180,130 M180,130 L240,130 M240,130 L240,230 M240,230 L180,230" />
      <path id="train-window2" d="M320,230 L320,130 M320,130 L380,130 M380,130 L380,230 M380,230 L320,230" />

  </symbol> <!-- end: train -->

</defs>

<g>

    <!-- left column: bus tram train -->
    <svg viewBox="0 0 504 504" width="140" x="20" y="-90" xmlns="http://www.w3.org/2000/svg">
        <use xlink:href="#bus"></use>
    </svg>
    <svg viewBox="0 0 504 504" width="140" x="20" y="-10" xmlns="http://www.w3.org/2000/svg">
        <use xlink:href="#tram"></use>
    </svg>
    <svg viewBox="0 0 504 504" width="120" x="30" y="90" xmlns="http://www.w3.org/2000/svg">
        <use xlink:href="#train"></use>
    </svg>

    <!-- middle column: tram train bus -->
    <svg viewBox="0 0 504 504" width="170" x="160" y="-150" xmlns="http://www.w3.org/2000/svg">
        <use xlink:href="#tram"></use>
    </svg>
    <svg viewBox="0 0 504 504" width="180" x="160" y="0" xmlns="http://www.w3.org/2000/svg">
        <use xlink:href="#train"></use>
    </svg>
    <svg viewBox="0 0 504 504" width="180" x="160" y="140" xmlns="http://www.w3.org/2000/svg">
        <use xlink:href="#bus"></use>
    </svg>

    <!-- right column: train bus tram -->
    <svg viewBox="0 0 504 504" width="120" x="360" y="-90" xmlns="http://www.w3.org/2000/svg">
        <use xlink:href="#train"></use>
    </svg>
    <svg viewBox="0 0 504 504" width="120" x="360" y="10" xmlns="http://www.w3.org/2000/svg">
        <use xlink:href="#bus"></use>
    </svg>
    <svg viewBox="0 0 504 504" width="120" x="355" y="85" xmlns="http://www.w3.org/2000/svg">
        <use xlink:href="#tram"></use>
    </svg>

    <rect x='0.00' y='0.00' width='504.00' height='504.00' style='stroke-width: 0.00;' />
    <polygon points='14.96,133.13 14.96,370.87 252.00,489.74 489.04,370.87 489.04,133.13 252.00,14.26 14.96,133.13 ' style='stroke-width: 12.80; stroke: #55BB55; stroke-linecap: butt;' />
    <text x='257.45' y='245.03' text-anchor='middle' style='font-size: 102.43px;fill: #555555; font-family: "SF Alien Encounters";' textLength='263.22px' lengthAdjust='spacingAndGlyphs'>gtfs</text>
    <text x='251.97' y='240.28' text-anchor='middle' style='font-size: 102.43px;fill: #55BB55; font-family: "SF Alien Encounters";' textLength='263.22px' lengthAdjust='spacingAndGlyphs'>gtfs</text>
    <text x='257.45' y='336.15' text-anchor='middle' style='font-size: 91.05px;fill: #555555; font-family: "SF Alien Encounters";' textLength='360.99px' lengthAdjust='spacingAndGlyphs'>router</text>
    <text x='251.97' y='331.39' text-anchor='middle' style='font-size: 91.05px;fill: #55BB55; font-family: "SF Alien Encounters";' textLength='360.99px' lengthAdjust='spacingAndGlyphs'>router</text>
</g>
</svg>
