<?xml version="1.0"?>
<svg width="740" height="520" xmlns="http://www.w3.org/2000/svg" xmlns:svg="http://www.w3.org/2000/svg">
 <g class="layer">
  <title>Train</title>
  <!-- Main outline, starting from upper left -->
  <path d="M30,60 L420,60
    M420,60 a300,300 45 0,1 300,300
    M720,360 L720,430
    M720,430 a50,50 0 0,1 -50,50
    M670,480 L570,480
    M570,480 L480,400
    M480,400 L80,400
    "
    fill="none" fill-opacity="null" stroke="#9b9b9b" stroke-dasharray="null" stroke-linecap="round" stroke-linejoin="null" stroke-opacity="null" stroke-width="30" />
  <!-- straight lines -->
  <line fill="none" fill-opacity="null" id="svg_4" stroke="#9b9b9b" stroke-dasharray="null" stroke-linecap="round" stroke-linejoin="null" stroke-opacity="null" stroke-width="30" x1="540" x2="640" y1="400" y2="400"/>
  <line fill="none" fill-opacity="null" id="svg_4" stroke="#9b9b9b" stroke-dasharray="null" stroke-linecap="round" stroke-linejoin="null" stroke-opacity="null" stroke-width="30" x1="690" x2="720" y1="400" y2="400"/>
  <line fill="none" fill-opacity="null" id="svg_4" stroke="#9b9b9b" stroke-dasharray="null" stroke-linecap="round" stroke-linejoin="null" stroke-opacity="null" stroke-width="30" x1="50" x2="640" y1="320" y2="320"/>
  <line fill="none" fill-opacity="null" id="svg_4" stroke="#9b9b9b" stroke-dasharray="null" stroke-linecap="round" stroke-linejoin="null" stroke-opacity="null" stroke-width="30" x1="30" x2="100" y1="240" y2="240"/>
  <line fill="none" fill-opacity="null" id="svg_4" stroke="#9b9b9b" stroke-dasharray="null" stroke-linecap="round" stroke-linejoin="null" stroke-opacity="null" stroke-width="30" x1="50" x2="100" y1="160" y2="160"/>
  <!-- wheels -->
  <path d="M70,450 a1,1 0 0,0 100,0" fill="none" fill-opacity="null" stroke="#9b9b9b" stroke-dasharray="null" stroke-linecap="round" stroke-linejoin="null" stroke-opacity="null" stroke-width="30" />
  <circle cx="120" cy="450" r="15" fill="#9b9b9b" fill-opacity="null" stroke="none" stroke-width="0" />
  <path d="M210,450 a1,1 0 0,0 100,0" fill="none" fill-opacity="null" stroke="#9b9b9b" stroke-dasharray="null" stroke-linecap="round" stroke-linejoin="null" stroke-opacity="null" stroke-width="30" />
  <circle cx="260" cy="450" r="15" fill="#9b9b9b" fill-opacity="null" stroke="none" stroke-width="0" />
  <path d="M350,450 a1,1 0 0,0 100,0" fill="none" fill-opacity="null" stroke="#9b9b9b" stroke-dasharray="null" stroke-linecap="round" stroke-linejoin="null" stroke-opacity="null" stroke-width="30" />
  <circle cx="400" cy="450" r="15" fill="#9b9b9b" fill-opacity="null" stroke="none" stroke-width="0" />
  <!-- drivers window -->
  <path d="M680,230 L470,230 M470,230 L470,120 M470,120 L520,120"
    fill="none" fill-opacity="null" stroke="#9b9b9b" stroke-dasharray="null" stroke-linecap="round" stroke-linejoin="null" stroke-opacity="null" stroke-width="30" />
  <line fill="none" fill-opacity="null" id="svg_4" stroke="#9b9b9b" stroke-dasharray="null" stroke-linecap="round" stroke-linejoin="null" stroke-opacity="null" stroke-width="30" x1="600" x2="600" y1="220" y2="200"/>
  <!-- windows -->
  <path d="M180,230 L180,130 M180,130 L240,130 M240,130 L240,230 M240,230 L180,230"
    fill="none" fill-opacity="null" stroke="#9b9b9b" stroke-dasharray="null" stroke-linecap="round" stroke-linejoin="null" stroke-opacity="null" stroke-width="30" />
  <path d="M320,230 L320,130 M320,130 L380,130 M380,130 L380,230 M380,230 L320,230"
    fill="none" fill-opacity="null" stroke="#9b9b9b" stroke-dasharray="null" stroke-linecap="round" stroke-linejoin="null" stroke-opacity="null" stroke-width="30" />

 </g>
</svg>
